<svg id="main-svg" version="1.1"
    xmlns="http://www.w3.org/2000/svg"
    xmlns:xlink="http://www.w3.org/1999/xlink" x="0px" y="0px" width="500px" height="500px" viewBox="-80 -80 160 160" xml:space="preserve">
    <g id="main-avatar" transform="rotate(-45)">
        <circle id="event-horizon-back" cx="0" cy="0" r="30" fill="#000"></circle>
        <ellipse id="accretion-disk" cx="0" cy="0" rx="90" ry="20" fill="#FFF" data-animate-wipe-duration="4" data-animate-wipe-phase="-90"></ellipse>
        <g id="event-horizon-front">
            <path d="
				M -30,0 
				A 1,1 0 0,1 30,0 
				A 9,2 0 0,1 -30,0
				" fill="#000"></path>
        </g>
        <g id="astrophysical-jets">
            <path d="M -14.999999999999998 25.98076211353316 A 9 2 0 0 0 14.999999999999998 25.98076211353316 Q 4.986682044916573 43.32433756407934 5.013333333333334 83.30127018922192 L 6.013333333333334 1583.301270189222 L -6.013333333333334 1583.301270189222 L -5.013333333333334 83.30127018922192 Q -4.986682044916573 43.32433756407934 -14.999999999999998 25.98076211353316" fill="#fff"></path>
            <path d="M -14.999999999999998 -25.98076211353316 A 9 2 0 0 0 14.999999999999998 -25.98076211353316 Q 4.986682044916573 -43.32433756407934 5.013333333333334 -83.30127018922192 L 6.013333333333334 -1583.301270189222 L -6.013333333333334 -1583.301270189222 L -5.013333333333334 -83.30127018922192 Q -4.986682044916573 -43.32433756407934 -14.999999999999998 -25.98076211353316" fill="#fff"></path>
        </g>
    </g>
</svg>
