<?xml version="1.0" encoding="utf-8"?>
<svg id="main-svg" version="1.1" xmlns="http://www.w3.org/2000/svg" x="0px" y="0px" width="500px" height="500px" viewBox="-85 -85 170 170">
  <rect id="background" x="-85" y="-85" width="170" height="170" fill="#0F20BB"/>
  <path id="shield" d="M -0.0008 -57.942 C 0.6632 -57.948 0.7872 -57.861 1.6302 -57.577 C 17.2492 -52.234 33.5402 -46.886 49.7542 -41.488 C 52.0832 -40.712 52.5562 -39.236 52.5562 -37.985 C 52.5562 -26.185 52.5562 -17.778 52.5562 -8.775 C 52.5562 8.37 50.0072 23.417 36.2682 41.1718 C 25.5442 55.0299 7.8752 66.1378 -0.0008 66.1525 C -7.877 66.164 -25.545 55.056 -36.269 41.198 C -50.011 23.444 -52.558 8.398 -52.558 -8.748 C -52.558 -17.751 -52.558 -26.156 -52.558 -37.956 C -52.558 -39.21 -52.086 -40.684 -49.758 -41.46 C -33.541 -46.858 -17.251 -52.206 -1.6318 -57.548 C -0.7888 -57.835 -0.6648 -57.948 -0.0008 -57.942 Z M -0.0008 -40.937 L -0.0008 48.8014 C 4.5332 48.7977 16.4712 40.136 22.3762 32.9476 C 30.6872 22.832 36.4042 8.743 36.4032 -3.756 C 36.4032 -7.059 36.4032 -23.439 36.4032 -26.2 C 36.4032 -27.721 35.6852 -29.131 33.8692 -29.828 C 32.0532 -30.525 -0.0008 -40.937 -0.0008 -40.937 Z" fill="#FFF"/>
</svg>
