<?xml version="1.0" encoding="utf-8"?>
<svg id="main-svg" version="1.1" xmlns="http://www.w3.org/2000/svg" x="0px" y="0px" width="500px" height="500px" viewBox="-100 -100 200 200" xmlns:bx="https://boxy-svg.com">
  <defs>
    <bx:export>
      <bx:file format="png" path="circle.png" width="500" height="500"/>
    </bx:export>
  </defs>
  <rect x="-100" y="-100" width="200" height="200" style="fill: rgb(20, 154, 0);"/>
  <path style="fill: none; stroke-linecap: round; stroke-linejoin: round; stroke-width: 28;" d="M -28.268 49.398 L -61.246 0.003 L -28.268 -49.398 M -61.246 0.003 L 61.246 0.003 M 28.268 -49.398 L 61.246 0.003 L 28.268 49.398"/>
  <path d="M -20.494 61.041 C -26.925 65.335 -35.618 63.602 -39.911 57.172 L -72.784 7.935 C -74.337 5.681 -75.246 2.948 -75.246 0.003 C -75.246 -2.942 -74.337 -5.674 -72.784 -7.929 L -39.912 -57.171 C -35.619 -63.602 -26.926 -65.335 -20.495 -61.042 C -14.064 -56.749 -12.331 -48.056 -16.624 -41.625 L -35.067 -13.997 L 35.067 -13.997 L 16.624 -41.625 C 12.331 -48.056 14.064 -56.749 20.495 -61.042 C 26.926 -65.335 35.619 -63.602 39.912 -57.171 L 72.784 -7.929 C 74.337 -5.674 75.246 -2.942 75.246 0.003 C 75.246 2.948 74.337 5.681 72.784 7.935 L 39.911 57.172 C 35.618 63.602 26.925 65.335 20.494 61.041 C 14.064 56.748 12.331 48.055 16.625 41.624 L 35.066 14.003 L -35.066 14.003 L -16.625 41.624 C -12.331 48.055 -14.064 56.748 -20.494 61.041 Z" style="fill: rgb(255, 255, 255);"/>
</svg>