<?xml version="1.0" encoding="utf-8"?>
<svg id="main-svg" version="1.1" xmlns="http://www.w3.org/2000/svg" x="0px" y="0px" width="500px" height="500px" viewBox="-100 -100 200 200" xmlns:bx="https://boxy-svg.com">
  <defs>
    <linearGradient gradientUnits="userSpaceOnUse" x1="37.635" y1="-349.78" x2="37.635" y2="361.531" id="gradient-0" gradientTransform="matrix(0.281171, 0, 0, 0.281171, -10.582018, -1.65185)">
      <stop offset="0" style="stop-color: rgb(93, 0, 183);"/>
      <stop offset="1" style="stop-color: rgb(49, 0, 124);"/>
    </linearGradient>
    <bx:export>
      <bx:file format="png" path="circle.png" width="500" height="500"/>
    </bx:export>
  </defs>
  <rect x="-100" y="-100" width="200" height="200" style="fill: url(&quot;#gradient-0&quot;);"/>
  <polygon style="fill: none; stroke-width: 2; stroke: rgba(255, 255, 255, 0.667);" points="3.281 -56.557 -45.845 -20.413 -27.646 46.264 39.281 38.474 48.063 -29.36"/>
  <path id="path-35" style="fill-opacity: 1; fill-rule: nonzero; stroke: none; fill: rgb(255, 255, 255); stroke-width: 0.053;" d="M -73.103 -20.745 L -54.464 -18.254 C -53.649 -18.147 -52.884 -17.871 -52.215 -17.466 L -58.747 -8.915 L -50.199 -15.451 C -49.794 -14.779 -49.519 -14.014 -49.412 -13.201 L -46.921 5.437 L -44.429 -13.201 C -44.323 -14.014 -44.044 -14.779 -43.642 -15.451 L -35.093 -8.915 L -41.626 -17.466 C -40.954 -17.871 -40.192 -18.147 -39.377 -18.254 L -20.738 -20.745 L -39.377 -23.233 C -40.192 -23.346 -40.954 -23.619 -41.626 -24.023 L -35.093 -32.575 L -43.642 -26.039 C -44.044 -26.714 -44.323 -27.473 -44.429 -28.289 L -46.921 -46.929 L -49.412 -28.289 C -49.519 -27.473 -49.794 -26.714 -50.199 -26.039 L -58.747 -32.575 L -52.215 -24.023 C -52.884 -23.619 -53.649 -23.346 -54.464 -23.233 L -73.103 -20.745 M 29.244 -30.292 L 43.284 -28.418 C 43.899 -28.337 44.473 -28.129 44.978 -27.822 L 40.058 -21.383 L 46.497 -26.307 C 46.801 -25.801 47.009 -25.222 47.09 -24.611 L 48.966 -10.572 L 50.843 -24.611 C 50.924 -25.222 51.131 -25.801 51.436 -26.307 L 57.877 -21.383 L 52.954 -27.822 C 53.461 -28.129 54.034 -28.337 54.649 -28.418 L 68.689 -30.292 L 54.649 -32.17 C 54.034 -32.252 53.461 -32.46 52.954 -32.766 L 57.877 -39.208 L 51.436 -34.285 C 51.131 -34.791 50.924 -35.361 50.843 -35.977 L 48.966 -50.016 L 47.09 -35.977 C 47.009 -35.361 46.801 -34.791 46.497 -34.285 L 40.058 -39.208 L 44.978 -32.766 C 44.473 -32.46 43.899 -32.252 43.284 -32.17 L 29.244 -30.292 M -58.699 47.429 L -35.461 50.535 C -34.442 50.668 -33.492 51.009 -32.656 51.517 L -40.799 62.177 L -30.143 54.03 C -29.64 54.866 -29.295 55.82 -29.161 56.835 L -26.055 80.071 L -22.95 56.835 C -22.816 55.82 -22.473 54.866 -21.969 54.03 L -11.309 62.177 L -19.456 51.517 C -18.617 51.009 -17.668 50.668 -16.651 50.535 L 6.586 47.429 L -16.651 44.328 C -17.668 44.186 -18.617 43.845 -19.456 43.341 L -11.309 32.681 L -21.969 40.829 C -22.473 39.988 -22.816 39.043 -22.95 38.024 L -26.055 14.788 L -29.161 38.024 C -29.295 39.043 -29.64 39.988 -30.143 40.829 L -40.799 32.681 L -32.656 43.341 C -33.492 43.845 -34.442 44.186 -35.461 44.328 L -58.699 47.429 M 11.683 36.641 L 30.389 39.141 C 31.209 39.249 31.974 39.523 32.647 39.932 L 26.091 48.514 L 34.67 41.955 C 35.075 42.628 35.353 43.396 35.461 44.213 L 37.961 62.918 L 40.461 44.213 C 40.569 43.396 40.845 42.628 41.251 41.955 L 49.832 48.514 L 43.273 39.932 C 43.949 39.523 44.713 39.249 45.532 39.141 L 64.239 36.641 L 45.532 34.144 C 44.713 34.03 43.949 33.755 43.273 33.35 L 49.832 24.768 L 41.251 31.327 C 40.845 30.651 40.569 29.889 40.461 29.069 L 37.961 10.363 L 35.461 29.069 C 35.353 29.889 35.075 30.651 34.67 31.327 L 26.091 24.768 L 32.647 33.35 C 31.974 33.755 31.209 34.03 30.389 34.144 L 11.683 36.641 M -16.692 -54.422 L -2.652 -52.549 C -2.036 -52.468 -1.463 -52.26 -0.957 -51.953 L -5.877 -45.515 L 0.561 -50.438 C 0.865 -49.932 1.074 -49.352 1.155 -48.742 L 3.031 -34.703 L 4.907 -48.742 C 4.988 -49.352 5.196 -49.932 5.5 -50.438 L 11.941 -45.515 L 7.018 -51.953 C 7.525 -52.26 8.099 -52.468 8.713 -52.549 L 22.753 -54.422 L 8.713 -56.3 C 8.099 -56.382 7.525 -56.59 7.018 -56.896 L 11.941 -63.338 L 5.5 -58.415 C 5.196 -58.921 4.988 -59.492 4.907 -60.107 L 3.031 -74.146 L 1.155 -60.107 C 1.074 -59.492 0.865 -58.921 0.561 -58.415 L -5.877 -63.338 L -0.957 -56.896 C -1.463 -56.59 -2.036 -56.382 -2.652 -56.3 L -16.692 -54.422"/>
</svg>