<?xml version="1.0" encoding="utf-8"?>
<svg id="main-svg" version="1.1" xmlns="http://www.w3.org/2000/svg" x="0px" y="0px" width="500px" height="500px" viewBox="-85 -85 170 170">
  <defs>
    <linearGradient gradientUnits="userSpaceOnUse" x1="37.635" y1="-349.78" x2="37.635" y2="361.531" id="gradient-0" gradientTransform="matrix(0.238995, 0, 0, 0.238995, -8.994476, -1.405014)">
      <stop offset="0" style="stop-color: rgb(93, 0, 183);"/>
      <stop offset="1" style="stop-color: rgb(49, 0, 124);"/>
    </linearGradient>
  </defs>
  <rect x="-85" y="-85" width="170" height="170" style="fill: url(&quot;#gradient-0&quot;);"/>
  <polygon style="fill: none; stroke-width: 1.7; stroke: rgba(255, 255, 255, 0.667);" points="3.257 -53.154 -42.692 -19.346 -25.67 43.018 36.929 35.732 45.142 -27.715"/>
  <path id="path-35" style="fill-opacity: 1; fill-rule: nonzero; stroke: none; fill: rgb(255, 255, 255); stroke-width: 0.045;" d="M -68.186 -19.657 L -50.753 -17.326 C -49.99 -17.227 -49.275 -16.968 -48.649 -16.59 L -54.758 -8.591 L -46.764 -14.705 C -46.386 -14.077 -46.128 -13.361 -46.028 -12.601 L -43.697 4.832 L -41.368 -12.601 C -41.268 -13.361 -41.007 -14.077 -40.632 -14.705 L -32.635 -8.591 L -38.746 -16.59 C -38.117 -16.968 -37.404 -17.227 -36.642 -17.326 L -19.208 -19.657 L -36.642 -21.984 C -37.404 -22.09 -38.117 -22.345 -38.746 -22.723 L -32.635 -30.722 L -40.632 -24.608 C -41.007 -25.24 -41.268 -25.95 -41.368 -26.712 L -43.697 -44.147 L -46.028 -26.712 C -46.128 -25.95 -46.386 -25.24 -46.764 -24.608 L -54.758 -30.722 L -48.649 -22.723 C -49.275 -22.345 -49.99 -22.09 -50.753 -21.984 L -68.186 -19.657 M 27.541 -28.586 L 40.673 -26.834 C 41.248 -26.757 41.785 -26.563 42.258 -26.277 L 37.655 -20.254 L 43.678 -24.859 C 43.963 -24.386 44.158 -23.844 44.233 -23.274 L 45.989 -10.142 L 47.743 -23.274 C 47.819 -23.844 48.013 -24.386 48.298 -24.859 L 54.322 -20.254 L 49.718 -26.277 C 50.192 -26.563 50.728 -26.757 51.303 -26.834 L 64.435 -28.586 L 51.303 -30.344 C 50.728 -30.42 50.192 -30.614 49.718 -30.9 L 54.322 -36.926 L 48.298 -32.321 C 48.013 -32.794 47.819 -33.328 47.743 -33.904 L 45.989 -47.035 L 44.233 -33.904 C 44.158 -33.328 43.963 -32.794 43.678 -32.321 L 37.655 -36.926 L 42.258 -30.9 C 41.785 -30.614 41.248 -30.42 40.673 -30.344 L 27.541 -28.586 M -54.714 44.109 L -32.978 47.012 C -32.026 47.138 -31.138 47.457 -30.355 47.931 L -37.972 57.902 L -28.005 50.282 C -27.535 51.064 -27.211 51.957 -27.086 52.906 L -24.182 74.639 L -21.277 52.906 C -21.153 51.957 -20.831 51.064 -20.36 50.282 L -10.39 57.902 L -18.01 47.931 C -17.224 47.457 -16.337 47.138 -15.385 47.012 L 6.348 44.109 L -15.385 41.208 C -16.337 41.075 -17.224 40.756 -18.01 40.285 L -10.39 30.314 L -20.36 37.934 C -20.831 37.149 -21.153 36.264 -21.277 35.311 L -24.182 13.578 L -27.086 35.311 C -27.211 36.264 -27.535 37.149 -28.005 37.934 L -37.972 30.314 L -30.355 40.285 C -31.138 40.756 -32.026 41.075 -32.978 41.208 L -54.714 44.109 M 11.116 34.018 L 28.612 36.356 C 29.379 36.456 30.095 36.714 30.724 37.096 L 24.593 45.123 L 32.617 38.987 C 32.995 39.618 33.255 40.336 33.356 41.1 L 35.694 58.595 L 38.033 41.1 C 38.134 40.336 38.391 39.618 38.771 38.987 L 46.798 45.123 L 40.664 37.096 C 41.295 36.714 42.01 36.456 42.775 36.356 L 60.273 34.018 L 42.775 31.682 C 42.01 31.575 41.295 31.319 40.664 30.94 L 46.798 22.913 L 38.771 29.048 C 38.391 28.415 38.134 27.703 38.033 26.936 L 35.694 9.439 L 33.356 26.936 C 33.255 27.703 32.995 28.415 32.617 29.048 L 24.593 22.913 L 30.724 30.94 C 30.095 31.319 29.379 31.575 28.612 31.682 L 11.116 34.018 M -15.424 -51.156 L -2.292 -49.404 C -1.716 -49.329 -1.18 -49.134 -0.706 -48.847 L -5.309 -42.824 L 0.713 -47.429 C 0.998 -46.956 1.193 -46.415 1.269 -45.844 L 3.023 -32.713 L 4.778 -45.844 C 4.854 -46.415 5.048 -46.956 5.334 -47.429 L 11.357 -42.824 L 6.753 -48.847 C 7.227 -49.134 7.763 -49.329 8.339 -49.404 L 21.471 -51.156 L 8.339 -52.913 C 7.763 -52.988 7.227 -53.183 6.753 -53.47 L 11.357 -59.497 L 5.334 -54.89 C 5.048 -55.364 4.854 -55.898 4.778 -56.473 L 3.023 -69.61 L 1.269 -56.473 C 1.193 -55.898 0.998 -55.364 0.713 -54.89 L -5.309 -59.497 L -0.706 -53.47 C -1.18 -53.183 -1.716 -52.988 -2.292 -52.913 L -15.424 -51.156"/>
</svg>