<?xml version="1.0" encoding="utf-8"?>
<svg id="main-svg" version="1.1" x="0px" y="0px" width="500px" height="500px" viewBox="-100 -100 200 200" xmlns="http://www.w3.org/2000/svg" xmlns:bx="https://boxy-svg.com">
  <defs>
    <symbol id="symbol-0" viewBox="0 0 200 200" bx:pinned="true">
      <title>gear</title>
      <path style="opacity: 1; fill: rgb(255, 255, 255);" d="M 199.38 89.39 L 199.38 105.09 L 174.23 113.21 L 169.38 128.13 L 184.95 149.49 L 175.73 162.18 L 150.6 153.98 L 137.92 163.19 L 137.96 189.63 L 123.03 194.48 L 107.53 173.07 L 91.85 173.07 L 76.35 194.48 L 61.42 189.63 L 61.46 163.19 L 48.78 153.98 L 23.65 162.18 L 14.43 149.49 L 30 128.13 L 25.15 113.21 L 0 105.09 L 0 89.39 L 25.15 81.27 L 30 66.35 L 14.43 44.99 L 23.65 32.3 L 48.78 40.5 L 61.46 31.29 L 61.42 4.85 L 76.35 0 L 91.85 21.41 L 107.53 21.41 L 123.03 0 L 137.96 4.85 L 137.92 31.29 L 150.6 40.5 L 175.73 32.3 L 184.95 44.99 L 169.38 66.35 L 174.23 81.27 L 199.38 89.39 Z">
        <title>Gear</title>
      </path>
    </symbol>
    <symbol id="gear" viewBox="0 0 200 200" bx:pinned="true">
      <path d="M 199.69 92.15 L 199.69 107.85 L 174.54 115.97 L 169.69 130.89 L 185.26 152.25 L 176.04 164.94 L 150.91 156.74 L 138.23 165.95 L 138.27 192.39 L 123.34 197.24 L 107.84 175.83 L 92.16 175.83 L 76.66 197.24 L 61.73 192.39 L 61.77 165.95 L 49.09 156.74 L 23.96 164.94 L 14.74 152.25 L 30.31 130.89 L 25.46 115.97 L 0.31 107.85 L 0.31 92.15 L 25.46 84.03 L 30.31 69.11 L 14.74 47.75 L 23.96 35.06 L 49.09 43.26 L 61.77 34.05 L 61.73 7.61 L 76.66 2.76 L 92.16 24.17 L 107.84 24.17 L 123.34 2.76 L 138.27 7.61 L 138.23 34.05 L 150.91 43.26 L 176.04 35.06 L 185.26 47.75 L 169.69 69.11 L 174.54 84.03 L 199.69 92.15 Z" fill="#FFF"/>
      <circle cx="100" cy="100" r="20" fill="#03750F"/>
    </symbol>
  </defs>
  <g id="fourth-part" style="">
    <rect x="-100" y="-100" width="200" height="200" style="pointer-events: none; fill: rgb(10, 118, 180);"/>
    <path style="stroke-linejoin: round; fill: rgb(255, 255, 255); stroke: rgb(255, 255, 255); stroke-width: 7px; visibility: hidden;" d="M 0.998 -6.886 C 4.799 -16.738 13.271 -37.9 13.271 -37.9 C 21.366 -43.713 41.697 -47.03 53.334 -31.165 C 60.775 -21.021 65.486 -0.195 49.203 19.372 C 41.323 28.841 23.802 44.253 11.266 54.671 L 15.432 37.402 L 2.795 24.612 L 17.692 9.794 L 0.998 -6.886 Z M -16.14 -3.408 C -12.339 -13.26 -5.386 -30.114 -5.386 -30.114 C -12.459 -40.759 -34.355 -50.572 -50.975 -34.078 C -62.376 -22.763 -66.185 2.205 -46.192 23.076 C -37.163 32.502 -16.996 48.827 -4.941 59.13 L -0.681 41.969 L -17.803 24.662 L -2.861 9.761 L -16.14 -3.408 Z" id="heart-base"/>
    <path d="M -0.836 -7.324 C 2.954 -17.149 11.394 -38.23 11.394 -38.23 C 11.639 -38.845 12.056 -39.378 12.595 -39.764 C 17.107 -42.9 25.299 -45.612 33.437 -45.151 C 41.494 -44.695 50.748 -40.778 57.307 -32.293 C 61.227 -26.851 64.702 -18.131 64.779 -8.63 C 64.855 0.74 61.502 11.919 53.063 22.29 C 45.033 31.906 27.37 47.47 14.858 57.871 C 13.704 58.83 12.064 58.941 10.79 58.148 C 9.515 57.354 8.894 55.834 9.246 54.374 L 12.937 39.074 L 1.723 27.725 C 0.375 26.359 0.384 24.161 1.745 22.807 L 14.093 10.524 L -0.049 -3.606 C -1.024 -4.58 -1.333 -6.039 -0.836 -7.324 Z M 1.031 12.963 L -11.382 25.343 L 3.218 40.1 C 4.073 40.964 4.415 42.211 4.123 43.389 L -0.117 60.468 C -0.408 61.64 -1.285 62.577 -2.435 62.945 C -3.584 63.314 -4.843 63.062 -5.761 62.277 C -17.722 52.053 -37.918 35.688 -47.065 26.157 C -57.398 15.148 -62.003 2.559 -62.13 -8.216 C -62.259 -19.125 -57.816 -29.411 -51.763 -35.604 C -42.565 -44.29 -31.383 -46.541 -22.365 -44.699 C -13.285 -42.847 -5.004 -36.87 -1.039 -31.114 C -0.399 -30.149 -0.279 -28.928 -0.72 -27.858 C -0.72 -27.858 -6.703 -13.358 -10.57 -3.475 L 1.025 8.024 C 1.683 8.677 2.055 9.565 2.056 10.492 C 2.057 11.42 1.688 12.308 1.031 12.963 Z" style="fill: rgb(255, 255, 255);"/>
  </g>
  <g style="visibility: hidden;" id="jaden">
    <rect x="-100" y="-100" width="200.0002" height="200.0001" style="fill: rgb(3, 117, 15); pointer-events: none;"/>
    <g style="transform-origin: 6.8415px -4.766px;" transform="matrix(0.939722, -0.341943, 0.341943, 0.939722, -1, -1)">
      <title>gears</title>
      <use width="70" height="70" transform="matrix(1, 0, 0, 1, -45, -75)" href="#gear"/>
      <use width="70" height="70" transform="matrix(1, 0, 0, 1, 0, -31)" href="#gear"/>
      <use width="70" height="70" transform="matrix(1, 0, 0, 1, -55.70000076293945, -1.7999999523162842)" href="#gear"/>
    </g>
    <g transform="matrix(-0.308937, 0.951082, -0.951082, -0.308937, -28.82473, -51.448921)" style="mix-blend-mode: difference; transform-origin: 43.8803px 70.397px; visibility: hidden;">
      <use width="70" height="70" transform="matrix(0.9397222399711609, -0.3419429659843445, 0.3419429659843445, 0.9397222399711609, -29.212186813354492, 37.36521911621094)" href="#gear"/>
      <use width="70" height="70" transform="matrix(0.9397222399711609, -0.3419429659843445, 0.3419429659843445, 0.9397222399711609, 28.12080192565918, 63.325557708740234)" href="#gear"/>
    </g>
  </g>
  <g style="visibility: hidden;" id="ruby">
    <title>Red</title>
    <rect x="-100" y="-100" width="200.0002" height="200.0001" style="fill: rgb(190, 38, 39);"/>
    <path d="M 0 -75 L 13.2583 -13.2583 L 75 0 L 13.2583 13.2583 L 0 75 L -13.2583 13.2583 L -75 0 L -13.2583 -13.2583 Z" style="fill: rgb(255, 255, 255);" bx:shape="star 0 0 75 75 0.25 4 1@586d49ab"/>
    <rect x="-25.433" y="-38.7164" width="40" height="40" style="fill: rgb(255, 255, 255); transform-origin: -5.4978px -18.7164px;" transform="matrix(0.707107, 0.707107, -0.707107, 0.707107, 5.432999, 18.716396)"/>
  </g>
  <g style="visibility: hidden;" id="kate">
    <title>Kate</title>
    <rect x="-99.9573" y="-100" width="200.0002" height="200.0001" style="pointer-events: none;"/>
    <g id="main-avatar" transform="matrix(0.707107, -0.707107, 0.707107, 0.707107, 0, 0)">
      <circle id="halo" cx="0" cy="0" r="40" fill="#FFF"/>
      <circle id="event-horizon-back" cx="0" cy="0" r="30" fill="#000"/>
      <ellipse id="accretion-disk" cx="0" cy="0" rx="90" ry="20" fill="#FFF" data-animate-wipe-duration="4" data-animate-wipe-phase="-90"/>
      <path d="M-30,0 A1,1 0 0,1 30,0 A9,2 0 0,1 -30,0" fill="#000"/>
    </g>
  </g>
  <path d="M -820.3007 -771.4358 L 817.5746 -771.4358 L 817.5746 768.531 L -820.3007 768.531 L -820.3007 -771.4358 Z M 0 -100 C -55.2285 -100 -100 -55.2285 -100 0 C -100 55.2285 -55.2285 100 0 100 C 55.2285 100 100 55.2285 100 0 C 100 -55.2285 55.2285 -100 0 -100 Z" style="fill: rgb(28, 29, 35); pointer-events: none;"/>
</svg>