<?xml version="1.0" encoding="utf-8"?>
<svg id="main-svg" version="1.1" x="0px" y="0px" width="500px" height="500px" viewBox="-100 -100 200 200" xmlns="http://www.w3.org/2000/svg" xmlns:xlink="http://www.w3.org/1999/xlink" xmlns:bx="https://boxy-svg.com">
  <defs>
    <symbol id="symbol-0" viewBox="0 0 200 200" bx:pinned="true">
      <title>gear</title>
      <path style="opacity: 1; fill: rgb(255, 255, 255);" d="M 199.38 89.39 L 199.38 105.09 L 174.23 113.21 L 169.38 128.13 L 184.95 149.49 L 175.73 162.18 L 150.6 153.98 L 137.92 163.19 L 137.96 189.63 L 123.03 194.48 L 107.53 173.07 L 91.85 173.07 L 76.35 194.48 L 61.42 189.63 L 61.46 163.19 L 48.78 153.98 L 23.65 162.18 L 14.43 149.49 L 30 128.13 L 25.15 113.21 L 0 105.09 L 0 89.39 L 25.15 81.27 L 30 66.35 L 14.43 44.99 L 23.65 32.3 L 48.78 40.5 L 61.46 31.29 L 61.42 4.85 L 76.35 0 L 91.85 21.41 L 107.53 21.41 L 123.03 0 L 137.96 4.85 L 137.92 31.29 L 150.6 40.5 L 175.73 32.3 L 184.95 44.99 L 169.38 66.35 L 174.23 81.27 L 199.38 89.39 Z">
        <title>Gear</title>
      </path>
    </symbol>
    <symbol id="gear" viewBox="0 0 200 200" bx:pinned="true">
      <path d="M 199.69 92.15 L 199.69 107.85 L 174.54 115.97 L 169.69 130.89 L 185.26 152.25 L 176.04 164.94 L 150.91 156.74 L 138.23 165.95 L 138.27 192.39 L 123.34 197.24 L 107.84 175.83 L 92.16 175.83 L 76.66 197.24 L 61.73 192.39 L 61.77 165.95 L 49.09 156.74 L 23.96 164.94 L 14.74 152.25 L 30.31 130.89 L 25.46 115.97 L 0.31 107.85 L 0.31 92.15 L 25.46 84.03 L 30.31 69.11 L 14.74 47.75 L 23.96 35.06 L 49.09 43.26 L 61.77 34.05 L 61.73 7.61 L 76.66 2.76 L 92.16 24.17 L 107.84 24.17 L 123.34 2.76 L 138.27 7.61 L 138.23 34.05 L 150.91 43.26 L 176.04 35.06 L 185.26 47.75 L 169.69 69.11 L 174.54 84.03 L 199.69 92.15 Z" fill="#FFF"/>
      <circle cx="100" cy="100" r="20" fill="#03750F"/>
    </symbol>
  </defs>
  <g transform="matrix(1, 0, 0, 1, 77.266052, 0.852874)" style="">
    <title>Jaden</title>
    <rect x="-177.2661" y="-100.8529" width="200.0002" height="200.0001" style="fill: rgb(3, 117, 15); pointer-events: none;"/>
    <g transform="matrix(1.027984, 0.000049, -0.000049, 1.027984, 35.607624, 2.315725)" style="transform-origin: -87.1278px -5.955px; visibility: hidden;">
      <title>gears</title>
      <path style="fill: rgb(255, 255, 255);" d="M -84.7619 -52.614 L -84.7619 -47.1049 L -93.593 -44.2509 L -95.2943 -39.0155 L -89.8277 -31.5155 L -93.065 -27.0581 L -101.8875 -29.94 L -106.3417 -26.7042 L -106.3271 -17.424 L -111.5656 -15.7211 L -117.0088 -23.2386 L -122.515 -23.2386 L -127.9582 -15.7211 L -133.1967 -17.424 L -133.1821 -26.7042 L -137.6363 -29.94 L -146.4588 -27.0581 L -149.6961 -31.5155 L -144.2295 -39.0155 L -145.9308 -44.2509 L -154.7619 -47.1049 L -154.7619 -52.614 L -145.9308 -55.4681 L -144.2295 -60.7036 L -149.6961 -68.2035 L -146.4588 -72.6609 L -137.6363 -69.779 L -133.1821 -73.0149 L -133.1967 -82.2951 L -127.9582 -83.9979 L -122.515 -76.4803 L -117.0088 -76.4803 L -111.5656 -83.9979 L -106.3271 -82.2951 L -106.3417 -73.0149 L -101.8875 -69.779 L -93.065 -72.6609 L -89.8277 -68.2035 L -95.2943 -60.7036 L -93.593 -55.4681 L -84.7619 -52.614 Z M -103.5352 -49.8595 C -103.5548 -62.3506 -117.0893 -70.1365 -127.8972 -63.874 C -138.7052 -57.6114 -138.6805 -41.9973 -127.8531 -35.7687 C -117.0452 -29.5514 -103.5548 -37.3399 -103.5352 -49.8086 L -103.5352 -49.8595 Z"/>
      <path style="fill: rgb(255, 255, 255);" d="M -95.4907 20.4209 L -95.4907 25.9301 L -104.3219 28.7841 L -106.0232 34.0195 L -100.5565 41.5196 L -103.7938 45.9769 L -112.6162 43.095 L -117.0706 46.3308 L -117.0559 55.6111 L -122.2944 57.3139 L -127.7376 49.7964 L -133.2438 49.7964 L -138.687 57.3139 L -143.9255 55.6111 L -143.9109 46.3308 L -148.3652 43.095 L -157.1876 45.9769 L -160.4249 41.5196 L -154.9582 34.0195 L -156.6595 28.7841 L -165.4907 25.9301 L -165.4907 20.4209 L -156.6595 17.5669 L -154.9582 12.3315 L -160.4249 4.8314 L -157.1876 0.3742 L -148.3652 3.2559 L -143.9109 0.0201 L -143.9255 -9.2601 L -138.687 -10.9629 L -133.2438 -3.4453 L -127.7376 -3.4453 L -122.2944 -10.9629 L -117.0559 -9.2601 L -117.0706 0.0201 L -112.6162 3.2559 L -103.7938 0.3742 L -100.5565 4.8314 L -106.0232 12.3315 L -104.3219 17.5669 L -95.4907 20.4209 Z M -114.2641 23.1755 C -114.2837 10.6843 -127.8181 2.8985 -138.626 9.1611 C -149.434 15.4236 -149.4094 31.0376 -138.582 37.2664 C -127.7741 43.4836 -114.2837 35.695 -114.2641 23.2264 L -114.2641 23.1755 Z"/>
      <path style="fill: rgb(255, 255, 255);" d="M -39.8293 -8.7367 L -39.8293 -3.2275 L -48.6605 -0.3735 L -50.3618 4.8619 L -44.8951 12.362 L -48.1324 16.8193 L -56.9548 13.9374 L -61.4091 17.1732 L -61.3945 26.4535 L -66.633 28.1563 L -72.0762 20.6388 L -77.5824 20.6388 L -83.0256 28.1563 L -88.2641 26.4535 L -88.2495 17.1732 L -92.7038 13.9374 L -101.5262 16.8193 L -104.7635 12.362 L -99.2968 4.8619 L -100.9981 -0.3735 L -109.8293 -3.2275 L -109.8293 -8.7367 L -100.9981 -11.5907 L -99.2968 -16.8261 L -104.7635 -24.3262 L -101.5262 -28.7834 L -92.7038 -25.9016 L -88.2495 -29.1375 L -88.2641 -38.4177 L -83.0256 -40.1205 L -77.5824 -32.6029 L -72.0762 -32.6029 L -66.633 -40.1205 L -61.3945 -38.4177 L -61.4091 -29.1375 L -56.9548 -25.9016 L -48.1324 -28.7834 L -44.8951 -24.3262 L -50.3618 -16.8261 L -48.6605 -11.5907 L -39.8293 -8.7367 Z M -58.6026 -5.9821 C -58.6223 -18.4733 -72.1567 -26.2591 -82.9646 -19.9965 C -93.7726 -13.7339 -93.748 1.8801 -82.9206 8.1088 C -72.1127 14.326 -58.6223 6.5374 -58.6026 -5.9312 L -58.6026 -5.9821 Z"/>
    </g>
    <g transform="matrix(0.138005, -0.051665, 0.051665, 0.138005, -658.380981, -311.248657)" style="transform-origin: 587.495px 306.414px;">
      <title>gears 2</title>
      <path style="fill: rgb(255, 255, 255);" d="M 710.8014 38.7469 L 710.8014 76.4069 L 650.4314 95.9169 L 638.8014 131.7069 L 676.1714 182.9769 L 654.0414 213.4469 L 593.7314 193.7469 L 563.2814 215.8669 L 563.3814 279.3069 L 527.5714 290.9469 L 490.3614 239.5569 L 452.7214 239.5569 L 415.5114 290.9469 L 379.7014 279.3069 L 379.8014 215.8669 L 349.3514 193.7469 L 289.0414 213.4469 L 266.9114 182.9769 L 304.2814 131.7069 L 292.6514 95.9169 L 232.2814 76.4069 L 232.2814 38.7469 L 292.6514 19.2369 L 304.2814 -16.5531 L 266.9114 -67.8231 L 289.0414 -98.2931 L 349.3514 -78.5931 L 379.8014 -100.7131 L 379.7014 -164.1531 L 415.5114 -175.7931 L 452.7214 -124.4031 L 490.3614 -124.4031 L 527.5714 -175.7931 L 563.3814 -164.1531 L 563.2814 -100.7131 L 593.7314 -78.5931 L 654.0414 -98.2931 L 676.1714 -67.8231 L 638.8014 -16.5531 L 650.4314 19.2369 L 710.8014 38.7469 Z"/>
      <path style="fill: rgb(255, 255, 255);" d="M 1017.5949 338.7523 L 1017.5949 376.4123 L 957.2249 395.9223 L 945.5949 431.7123 L 982.9649 482.9823 L 960.8349 513.4523 L 900.5249 493.7523 L 870.0749 515.8723 L 870.1749 579.3123 L 834.3649 590.9523 L 797.1549 539.5623 L 759.5149 539.5623 L 722.3049 590.9523 L 686.4949 579.3123 L 686.5949 515.8723 L 656.1449 493.7523 L 595.8349 513.4523 L 573.7049 482.9823 L 611.0749 431.7123 L 599.4449 395.9223 L 539.0749 376.4123 L 539.0749 338.7523 L 599.4449 319.2423 L 611.0749 283.4523 L 573.7049 232.1823 L 595.8349 201.7123 L 656.1449 221.4123 L 686.5949 199.2923 L 686.4949 135.8523 L 722.3049 124.2123 L 759.5149 175.6023 L 797.1549 175.6023 L 834.3649 124.2123 L 870.1749 135.8523 L 870.0749 199.2923 L 900.5249 221.4123 L 960.8349 201.7123 L 982.9649 232.1823 L 945.5949 283.4523 L 957.2249 319.2423 L 1017.5949 338.7523 Z"/>
      <path style="fill: rgb(255, 255, 255);" d="M 635.9146 536.4217 L 635.9146 574.0817 L 575.5446 593.5917 L 563.9146 629.3817 L 601.2846 680.6517 L 579.1546 711.1217 L 518.8446 691.4217 L 488.3946 713.5417 L 488.4946 776.9817 L 452.6846 788.6217 L 415.4746 737.2317 L 377.8346 737.2317 L 340.6246 788.6217 L 304.8146 776.9817 L 304.9146 713.5417 L 274.4646 691.4217 L 214.1546 711.1217 L 192.0246 680.6517 L 229.3946 629.3817 L 217.7646 593.5917 L 157.3946 574.0817 L 157.3946 536.4217 L 217.7646 516.9117 L 229.3946 481.1217 L 192.0246 429.8517 L 214.1546 399.3817 L 274.4646 419.0817 L 304.9146 396.9617 L 304.8146 333.5217 L 340.6246 321.8817 L 377.8346 373.2717 L 415.4746 373.2717 L 452.6846 321.8817 L 488.4946 333.5217 L 488.3946 396.9617 L 518.8446 419.0817 L 579.1546 399.3817 L 601.2846 429.8517 L 563.9146 481.1217 L 575.5446 516.9117 L 635.9146 536.4217 Z"/>
      <ellipse style="fill: rgb(3, 117, 15);" cx="471.5414" cy="57.5769" rx="48.5455" ry="50.626"/>
      <ellipse style="fill: rgb(3, 117, 15);" cx="778.3349" cy="357.5823" rx="48.5455" ry="49.239"/>
      <ellipse style="fill: rgb(3, 117, 15);" cx="396.6546" cy="555.2517" rx="48.5455" ry="49.239"/>
    </g>
  </g>
  <g style="">
    <rect x="-100" y="-100" width="200.0002" height="200.0001" style="fill: rgb(3, 117, 15); pointer-events: none;"/>
    <g style="transform-origin: 6.8415px -4.766px;" transform="matrix(0.939722, -0.341943, 0.341943, 0.939722, -1, -1)">
      <title>gears</title>
      <use width="70" height="70" transform="matrix(1, 0, 0, 1, -45, -75)" xlink:href="#gear"/>
      <use width="70" height="70" transform="matrix(1, 0, 0, 1, 0, -31)" xlink:href="#gear"/>
      <use width="70" height="70" transform="matrix(1, 0, 0, 1, -55.70000076293945, -1.7999999523162842)" xlink:href="#gear"/>
    </g>
    <g transform="matrix(-0.308937, 0.951082, -0.951082, -0.308937, -28.82473, -51.448921)" style="mix-blend-mode: difference; transform-origin: 43.8803px 70.397px; visibility: hidden;">
      <use width="70" height="70" transform="matrix(0.9397221207618713, -0.34194299578666687, 0.34194299578666687, 0.9397221207618713, -29.212186813354492, 37.36521911621094)" xlink:href="#gear"/>
      <use width="70" height="70" transform="matrix(0.9397221207618713, -0.34194299578666687, 0.34194299578666687, 0.9397221207618713, 28.12080192565918, 63.325557708740234)" xlink:href="#gear"/>
    </g>
  </g>
  <g style="visibility: hidden;">
    <title>Red</title>
    <rect x="-100" y="-100" width="200.0002" height="200.0001" style="fill: rgb(190, 38, 39);"/>
    <path d="M 0 -75 L 13.2583 -13.2583 L 75 0 L 13.2583 13.2583 L 0 75 L -13.2583 13.2583 L -75 0 L -13.2583 -13.2583 Z" style="fill: rgb(255, 255, 255);" bx:shape="star 0 0 75 75 0.25 4 1@586d49ab"/>
    <rect x="-25.433" y="-38.7164" width="40" height="40" style="fill: rgb(255, 255, 255); transform-origin: -5.4978px -18.7164px;" transform="matrix(0.707107, 0.707107, -0.707107, 0.707107, 5.432999, 18.716396)"/>
  </g>
  <g style="visibility: hidden;">
    <title>Kate</title>
    <rect x="-99.9573" y="-100" width="200.0002" height="200.0001" style="pointer-events: none;"/>
    <g id="main-avatar" transform="matrix(0.707107, -0.707107, 0.707107, 0.707107, 0, 0)">
      <circle id="halo" cx="0" cy="0" r="40" fill="#FFF"/>
      <circle id="event-horizon-back" cx="0" cy="0" r="30" fill="#000"/>
      <ellipse id="accretion-disk" cx="0" cy="0" rx="90" ry="20" fill="#FFF" data-animate-wipe-duration="4" data-animate-wipe-phase="-90"/>
      <path d="M-30,0 A1,1 0 0,1 30,0 A9,2 0 0,1 -30,0" fill="#000"/>
    </g>
  </g>
  <path d="M -820.3007 -771.4358 L 817.5746 -771.4358 L 817.5746 768.531 L -820.3007 768.531 L -820.3007 -771.4358 Z M 0 -100 C -55.2285 -100 -100 -55.2285 -100 0 C -100 55.2285 -55.2285 100 0 100 C 55.2285 100 100 55.2285 100 0 C 100 -55.2285 55.2285 -100 0 -100 Z" style="fill: rgb(28, 29, 35); pointer-events: none;"/>
</svg>