<?xml version="1.0" encoding="utf-8"?>
<svg id="main-svg" version="1.1" xmlns="http://www.w3.org/2000/svg" x="0px" y="0px" width="500px" height="500px" viewBox="-85 -85 170 170">
  <rect id="background" x="-85" y="-85" width="170" height="170" fill="#EB8C1F"/>
  <path id="swords" d="M -43.42 36.799 L -32.862 47.354 L -50.359 64.851 L -60.914 54.295 L -43.42 36.799 Z M -38.8 30.862 C -46.232 23.43 -42.711 14.747 -38.13 10.165 L -30.219 18.076 L 28.903 -41.024 C 41.637 -53.759 61.883 -59.77 63.448 -59.511 C 63.709 -57.948 57.694 -37.698 44.961 -24.967 L -14.141 34.155 L -6.23 42.066 C -10.811 46.648 -19.495 50.168 -26.926 42.737 L -38.8 30.862 Z M 60.994 54.296 L 50.439 64.851 L 32.942 47.354 L 43.5 36.799 L 60.994 54.296 Z M 27.006 42.736 C 19.575 50.169 10.892 46.648 6.31 42.068 L 14.221 34.156 L 5.275 25.207 L 21.351 9.131 L 30.299 18.076 L 38.211 10.166 C 42.791 14.747 46.312 23.431 38.882 30.864 L 27.006 42.736 Z M -44.879 -24.966 C -57.613 -37.698 -63.628 -57.948 -63.366 -59.511 C -61.803 -59.77 -41.556 -53.759 -28.823 -41.024 L -5.143 -17.353 L -21.21 -1.287 L -44.879 -24.966 Z" fill="#FFF"/>
</svg>
