<?xml version="1.0" encoding="utf-8"?>
<svg id="main-svg" version="1.1" xmlns="http://www.w3.org/2000/svg" x="0px" y="0px" width="500px" height="500px" viewBox="-100 -100 200 200" xmlns:bx="https://boxy-svg.com">
  <defs>
    <linearGradient gradientUnits="userSpaceOnUse" x1="37.635" y1="-349.78" x2="37.635" y2="361.531" id="gradient-6" gradientTransform="matrix(0.281171, 0, 0, 0.281171, -10.581646, -1.655067)">
      <stop offset="0" style="stop-color: rgb(66, 5, 190);"/>
      <stop offset="1" style="stop-color: rgb(12, 12, 117);"/>
    </linearGradient>
    <bx:export>
      <bx:file format="png" width="500" height="500" path="circle.png"/>
    </bx:export>
  </defs>
  <rect x="-100" y="-100" width="200" height="200" style="fill: url(&quot;#gradient-6&quot;); stroke-width: 0.281;"/>
  <path d="M -2.973 -52.96 C -2.957 -54.12 -3.315 -55.03 -4.046 -55.7 C -4.745 -56.35 -5.698 -56.68 -6.906 -56.68 L -32.05 -56.78 C -33.21 -56.78 -34.132 -56.45 -34.815 -55.8 C -35.498 -55.13 -35.84 -54.23 -35.84 -53.104 C -35.84 -51.993 -35.482 -51.133 -34.767 -50.531 C -34.052 -49.91 -33.107 -49.6 -31.931 -49.6 L -14.246 -49.505 L -35.006 -26.673 C -35.816 -25.783 -36.221 -24.726 -36.221 -23.503 C -36.221 -22.391 -35.864 -21.525 -35.149 -20.905 C -34.434 -20.285 -33.488 -19.976 -32.313 -19.976 L -6.953 -19.832 C -5.746 -19.832 -4.784 -20.134 -4.069 -20.738 C -3.339 -21.358 -2.973 -22.224 -2.973 -23.336 C -2.973 -24.512 -3.331 -25.426 -4.046 -26.077 C -4.745 -26.728 -5.698 -27.054 -6.906 -27.054 L -25.186 -27.126 L -4.999 -48.813 C -3.649 -50.261 -2.973 -51.642 -2.973 -52.96 Z M 53.571 -38.272 C 53.589 -39.622 53.174 -40.684 52.324 -41.458 C 51.511 -42.217 50.403 -42.594 49 -42.594 L 19.77 -42.706 C 18.422 -42.706 17.351 -42.326 16.557 -41.57 C 15.762 -40.794 15.365 -39.751 15.365 -38.438 C 15.365 -37.147 15.781 -36.149 16.612 -35.446 C 17.443 -34.726 18.542 -34.366 19.909 -34.366 L 40.466 -34.254 L 16.335 -7.714 C 15.393 -6.68 14.922 -5.451 14.922 -4.029 C 14.922 -2.736 15.338 -1.73 16.169 -1.009 C 17 -0.289 18.099 0.071 19.466 0.071 L 48.944 0.237 C 50.348 0.237 51.465 -0.113 52.296 -0.815 C 53.146 -1.536 53.571 -2.542 53.571 -3.835 C 53.571 -5.202 53.155 -6.264 52.324 -7.021 C 51.511 -7.778 50.403 -8.157 49 -8.157 L 27.75 -8.24 L 51.216 -33.453 C 52.786 -35.134 53.571 -36.74 53.571 -38.272 Z M 12.393 14.617 C 12.417 12.895 11.886 11.539 10.801 10.548 C 9.763 9.581 8.348 9.097 6.556 9.097 L -30.77 8.956 C -32.492 8.956 -33.86 9.44 -34.874 10.407 C -35.888 11.397 -36.395 12.73 -36.395 14.404 C -36.395 16.055 -35.865 17.329 -34.803 18.225 C -33.742 19.145 -32.338 19.605 -30.593 19.605 L -4.341 19.747 L -35.157 53.641 C -36.36 54.961 -36.961 56.53 -36.961 58.346 C -36.961 59.997 -36.431 61.283 -35.369 62.203 C -34.308 63.122 -32.905 63.582 -31.159 63.582 L 6.485 63.794 C 8.277 63.794 9.704 63.346 10.766 62.45 C 11.851 61.53 12.393 60.245 12.393 58.594 C 12.393 56.848 11.863 55.492 10.801 54.525 C 9.763 53.558 8.348 53.075 6.556 53.075 L -20.581 52.968 L 9.386 20.773 C 11.391 18.626 12.393 16.574 12.393 14.617 Z" style="fill: rgb(255, 255, 255); text-wrap-mode: nowrap; stroke-width: 0.281;"/>
</svg>