<?xml version="1.0" encoding="utf-8"?>
<svg id="main-svg" version="1.1" xmlns="http://www.w3.org/2000/svg" x="0px" y="0px" width="500px" height="500px" viewBox="-80 -80 160 160" xmlns:bx="https://boxy-svg.com">
  <defs>
    <linearGradient gradientUnits="userSpaceOnUse" x1="37.635" y1="-349.78" x2="37.635" y2="361.531" id="gradient-6" gradientTransform="matrix(0.224937, 0, 0, 0.224937, -8.465677, -1.321929)">
      <stop offset="0" style="stop-color: rgb(66, 5, 190);"/>
      <stop offset="1" style="stop-color: rgb(12, 12, 117);"/>
    </linearGradient>
    <bx:export>
      <bx:file format="png" path="square.png" width="500" height="500"/>
    </bx:export>
  </defs>
  <rect x="-80" y="-80" width="160" height="160" style="fill: url(&quot;#gradient-6&quot;); stroke-width: 0.225;"/>
  <path d="M -4.377 -49.212 C -4.363 -50.235 -4.677 -51.041 -5.323 -51.628 C -5.939 -52.204 -6.779 -52.491 -7.843 -52.491 L -30.007 -52.576 C -31.028 -52.576 -31.841 -52.288 -32.443 -51.713 C -33.045 -51.126 -33.347 -50.332 -33.347 -49.339 C -33.347 -48.359 -33.032 -47.601 -32.401 -47.072 C -31.77 -46.523 -30.937 -46.25 -29.901 -46.25 L -14.314 -46.167 L -32.612 -26.041 C -33.326 -25.257 -33.682 -24.326 -33.682 -23.247 C -33.682 -22.267 -33.367 -21.504 -32.737 -20.957 C -32.107 -20.411 -31.274 -20.138 -30.237 -20.138 L -7.885 -20.012 C -6.821 -20.012 -5.973 -20.278 -5.343 -20.809 C -4.698 -21.357 -4.377 -22.12 -4.377 -23.101 C -4.377 -24.136 -4.692 -24.942 -5.323 -25.517 C -5.939 -26.09 -6.779 -26.377 -7.843 -26.377 L -23.956 -26.44 L -6.163 -45.556 C -4.972 -46.833 -4.377 -48.049 -4.377 -49.212 Z M 45.463 -36.265 C 45.48 -37.455 45.114 -38.391 44.364 -39.073 C 43.648 -39.742 42.671 -40.075 41.434 -40.075 L 15.67 -40.174 C 14.482 -40.174 13.537 -39.839 12.838 -39.172 C 12.138 -38.488 11.788 -37.569 11.788 -36.412 C 11.788 -35.274 12.153 -34.394 12.886 -33.774 C 13.619 -33.14 14.588 -32.823 15.793 -32.823 L 33.913 -32.724 L 12.643 -9.33 C 11.812 -8.419 11.396 -7.336 11.396 -6.082 C 11.396 -4.942 11.763 -4.056 12.496 -3.42 C 13.229 -2.786 14.197 -2.469 15.401 -2.469 L 41.385 -2.322 C 42.622 -2.322 43.607 -2.631 44.34 -3.25 C 45.09 -3.884 45.463 -4.773 45.463 -5.911 C 45.463 -7.117 45.097 -8.052 44.364 -8.72 C 43.648 -9.387 42.671 -9.721 41.434 -9.721 L 22.703 -9.794 L 43.389 -32.018 C 44.771 -33.499 45.463 -34.915 45.463 -36.265 Z M 9.167 10.352 C 9.188 8.835 8.721 7.64 7.765 6.767 C 6.849 5.915 5.602 5.488 4.022 5.488 L -28.878 5.363 C -30.395 5.363 -31.601 5.789 -32.496 6.641 C -33.389 7.515 -33.836 8.69 -33.836 10.166 C -33.836 11.621 -33.368 12.744 -32.433 13.533 C -31.497 14.344 -30.26 14.749 -28.722 14.749 L -5.582 14.875 L -32.745 44.751 C -33.805 45.914 -34.335 47.296 -34.335 48.897 C -34.335 50.353 -33.868 51.486 -32.933 52.297 C -31.997 53.108 -30.759 53.512 -29.222 53.512 L 3.96 53.7 C 5.541 53.7 6.798 53.305 7.733 52.515 C 8.689 51.704 9.167 50.572 9.167 49.115 C 9.167 47.578 8.7 46.382 7.765 45.529 C 6.849 44.678 5.602 44.251 4.022 44.251 L -19.897 44.157 L 6.516 15.778 C 8.283 13.887 9.167 12.078 9.167 10.352 Z" style="fill: rgb(255, 255, 255); text-wrap-mode: nowrap; stroke-width: 0.225;"/>
</svg>