<?xml version="1.0" encoding="utf-8"?>
<svg id="main-svg" version="1.1" xmlns="http://www.w3.org/2000/svg" x="0px" y="0px" width="500px" height="500px" viewBox="-100 -100 200 200" xmlns:bx="https://boxy-svg.com">
  <defs>
    <linearGradient id="gradient-2">
      <stop offset="0" style="stop-color: rgb(241, 0, 0);"/>
      <stop offset="1" style="stop-color: rgba(255, 0, 0, 0.345);"/>
    </linearGradient>
    <linearGradient id="gradient-2-1" href="#gradient-2" gradientUnits="userSpaceOnUse" x1="140.36" y1="5.879" x2="140.36" y2="424.226" gradientTransform="matrix(0.95301, 0, 0, 0.95301, 9.79422, -19.379802)"/>
    <bx:export>
      <bx:file format="png" width="500" height="500" path="circle.png"/>
    </bx:export>
  </defs>
  <rect x="-100" y="-100" width="200" height="200" style="fill: rgb(1, 23, 147); stroke-width: 0.281;"/>
  <g style="" transform="matrix(0.399178, 0, 0, 0.399178, -48.856693, -36.508118)">
    <path d="M -30.679 -109.41 L -78.748 -108.59 L 240.273 75.019 L 228.45 95.566 L -93.065 -89.478 L -67.834 -44.905 C -62.866 -42.542 -29.92 -26.655 7.991 -1.963 C 46.956 23.422 89.208 55.123 102.37 92.81 C 108.163 95.688 142.315 112.465 190.634 128.026 C 238.788 143.533 297.303 155.498 342.748 147.791 C 326.268 102.748 286.172 58.804 248.298 26.018 C 213.177 -4.383 182.153 -24.282 173.307 -29.8 C 134.095 -22.205 85.534 -43.323 44.092 -64.728 C 3.968 -85.437 -26.056 -106.19 -30.679 -109.41 Z" style="stroke-width: 1; fill: rgb(255, 255, 255);">
      <title>knife</title>
    </path>
    <path d="M -64.919 -13.78 C -57.791 8.339 -51.787 36.42 -46.517 68.155 L -46.517 166.198 L -22.811 166.198 L -22.811 112.767 C -4.197 76.562 29.135 108.788 41.506 180.674 L 41.506 384.912 L 65.212 384.912 L 65.212 183.525 C 81.22 166.798 100.618 188.223 114.654 224.425 L 114.654 269.047 L 138.363 269.047 L 138.363 236.438 C 160.001 210.146 197.281 229.221 214.388 298.722 L 214.388 383.576 L 238.093 383.576 L 238.093 298.495 C 260.389 224.758 300.446 191.45 332.465 176.332 C 283.373 181.109 228.797 168.371 183.365 153.738 C 128.855 136.185 87.335 115.113 87.335 115.113 L 82.616 112.72 L 81.248 107.609 C 74.323 81.771 34.327 46.639 -4.949 21.059 C -28.133 5.957 -50.395 -6.232 -64.919 -13.78 Z M -34.663 181.395 C -34.663 181.395 -61.403 248.207 -61.403 262.975 C -61.403 277.746 -49.435 289.714 -34.663 289.714 C -19.892 289.714 -7.921 277.746 -7.921 262.975 C -7.921 248.207 -34.663 181.395 -34.663 181.395 Z M 126.507 286.762 C 126.507 286.762 99.768 353.575 99.768 368.343 C 99.768 383.114 111.735 395.081 126.507 395.081 C 141.278 395.081 153.249 383.114 153.249 368.343 C 153.249 353.575 126.507 286.762 126.507 286.762 Z" style="stroke-width: 1; fill: url(&quot;#gradient-2-1&quot;);"/>
  </g>
</svg>