<?xml version="1.0" encoding="utf-8"?>
<svg id="main-svg" version="1.1" xmlns="http://www.w3.org/2000/svg" x="0px" y="0px" width="500px" height="500px" viewBox="-85 -85 170 170">
  <rect id="background" x="-85" y="-85" width="170" height="170" fill="#0A76B4"/>
  <path id="heart" d="M -0.836 -10.324 C 2.954 -20.149 11.394 -41.23 11.394 -41.23 C 11.639 -41.845 12.056 -42.378 12.595 -42.764 C 17.107 -45.9 25.299 -48.612 33.437 -48.151 C 41.494 -47.695 50.748 -43.778 57.307 -35.293 C 61.227 -29.851 64.702 -21.131 64.779 -11.63 C 64.855 -2.26 61.502 8.919 53.063 19.29 C 45.033 28.906 27.37 44.47 14.858 54.871 C 13.704 55.83 12.064 55.941 10.79 55.148 C 9.515 54.354 8.894 52.834 9.246 51.374 L 12.937 36.074 L 1.723 24.725 C 0.375 23.359 0.384 21.161 1.745 19.807 L 14.093 7.524 L -0.049 -6.606 C -1.024 -7.58 -1.333 -9.039 -0.836 -10.324 Z M 1.031 9.963 L -11.382 22.343 L 3.218 37.1 C 4.073 37.964 4.415 39.211 4.123 40.389 L -0.117 57.468 C -0.408 58.64 -1.285 59.577 -2.435 59.945 C -3.584 60.314 -4.843 60.062 -5.761 59.277 C -17.722 49.053 -37.918 32.688 -47.065 23.157 C -57.398 12.148 -62.003 -0.441 -62.13 -11.216 C -62.259 -22.125 -57.816 -32.411 -51.763 -38.604 C -42.565 -47.29 -31.383 -49.541 -22.365 -47.699 C -13.285 -45.847 -5.004 -39.87 -1.039 -34.114 C -0.399 -33.149 -0.279 -31.928 -0.72 -30.858 C -0.72 -30.858 -6.703 -16.358 -10.57 -6.475 L 1.025 5.024 C 1.683 5.677 2.055 6.565 2.056 7.492 C 2.057 8.42 1.688 9.308 1.031 9.963 Z" fill="#FFF"/>
</svg>