<?xml version="1.0" encoding="utf-8"?>
<svg id="main-svg" version="1.1" xmlns="http://www.w3.org/2000/svg" x="0px" y="0px" width="500px" height="500px" viewBox="-100 -100 200 200">
  <rect id="background" x="-100" y="-100" width="200" height="200" fill="#0A76B4"/>
  <path id="heart" d="M -0.836 -7.879 C 2.954 -17.704 11.394 -38.785 11.394 -38.785 C 11.639 -39.4 12.056 -39.933 12.595 -40.319 C 17.107 -43.455 25.299 -46.167 33.437 -45.706 C 41.494 -45.25 50.748 -41.333 57.307 -32.848 C 61.227 -27.406 64.702 -18.686 64.779 -9.185 C 64.855 0.185 61.502 11.364 53.063 21.735 C 45.033 31.351 27.37 46.915 14.858 57.316 C 13.704 58.275 12.064 58.386 10.79 57.593 C 9.515 56.799 8.894 55.279 9.246 53.819 L 12.937 38.519 L 1.723 27.17 C 0.375 25.804 0.384 23.606 1.745 22.252 L 14.093 9.969 L -0.049 -4.161 C -1.024 -5.135 -1.333 -6.594 -0.836 -7.879 Z M 1.031 12.408 L -11.382 24.788 L 3.218 39.545 C 4.073 40.409 4.415 41.656 4.123 42.834 L -0.117 59.913 C -0.408 61.085 -1.285 62.022 -2.435 62.39 C -3.584 62.759 -4.843 62.507 -5.761 61.722 C -17.722 51.498 -37.918 35.133 -47.065 25.602 C -57.398 14.593 -62.003 2.004 -62.13 -8.771 C -62.259 -19.68 -57.816 -29.966 -51.763 -36.159 C -42.565 -44.845 -31.383 -47.096 -22.365 -45.254 C -13.285 -43.402 -5.004 -37.425 -1.039 -31.669 C -0.399 -30.704 -0.279 -29.483 -0.72 -28.413 C -0.72 -28.413 -6.703 -13.913 -10.57 -4.03 L 1.025 7.469 C 1.683 8.122 2.055 9.01 2.056 9.937 C 2.057 10.865 1.688 11.753 1.031 12.408 Z" fill="#FFF"/>
</svg>