<?xml version="1.0" encoding="utf-8"?>
<svg id="main-svg" version="1.1" xmlns="http://www.w3.org/2000/svg" x="0px" y="0px" width="500px" height="500px" viewBox="-100 -100 200 200">
  <rect id="background" x="-100" y="-100" width="200" height="200" fill="#F45DE8"/>
  <path id="sparkles" d="M -6.894 -45.04 L -4.842 -35.475 L -2.789 -45.04 C -1.989 -48.755 0.917 -51.659 4.64 -52.463 L 14.2 -54.516 L 4.64 -56.568 C 0.917 -57.364 -1.989 -60.269 -2.789 -63.994 L -4.842 -73.554 L -6.894 -63.994 C -7.693 -60.269 -10.6 -57.364 -14.322 -56.568 L -23.883 -54.516 L -14.322 -52.463 C -10.6 -51.659 -7.693 -48.755 -6.894 -45.04 M 20.696 -11.742 C 27.325 -10.317 32.504 -5.14 33.928 1.494 L 37.586 18.527 L 41.243 1.494 C 42.666 -5.14 47.845 -10.317 54.476 -11.742 L 71.508 -15.395 L 54.476 -19.054 C 47.845 -20.478 42.666 -25.655 41.243 -32.289 L 37.586 -49.317 L 33.928 -32.289 C 32.504 -25.655 27.325 -20.478 20.696 -19.054 L 3.664 -15.395 L 20.696 -11.742 M -47.536 -14.47 L -45.753 -6.159 L -43.968 -14.47 C -43.273 -17.704 -40.748 -20.227 -37.512 -20.924 L -29.202 -22.711 L -37.512 -24.493 C -40.748 -25.184 -43.273 -27.713 -43.968 -30.945 L -45.753 -39.257 L -47.536 -30.945 C -48.233 -27.713 -50.758 -25.184 -53.991 -24.493 L -62.3 -22.711 L -53.991 -20.924 C -50.758 -20.227 -48.233 -17.704 -47.536 -14.47 M 28.686 38.216 L 26.274 26.982 L 23.861 38.216 C 22.922 42.59 19.507 46.006 15.134 46.947 L 3.9 49.356 L 15.134 51.772 C 19.507 52.707 22.922 56.123 23.861 60.497 L 26.274 71.73 L 28.686 60.497 C 29.626 56.123 33.041 52.707 37.414 51.772 L 48.648 49.356 L 37.414 46.947 C 33.041 46.006 29.626 42.59 28.686 38.216 M -46.866 34.662 C -40.239 36.087 -35.059 41.264 -33.635 47.899 L -29.977 64.931 L -26.321 47.899 C -24.897 41.264 -19.718 36.087 -13.087 34.662 L 3.945 31.009 L -13.087 27.351 C -19.718 25.926 -24.897 20.749 -26.321 14.114 L -29.977 -2.912 L -33.635 14.114 C -35.059 20.749 -40.239 25.926 -46.866 27.351 L -63.9 31.009 L -46.866 34.662" fill="#FFF"/>
</svg>
