<?xml version="1.0" encoding="utf-8"?>
<svg id="main-svg" version="1.1" xmlns="http://www.w3.org/2000/svg" x="0px" y="0px" width="500px" height="500px" viewBox="-80 -80 160 160" xmlns:bx="https://boxy-svg.com">
  <defs>
    <bx:export>
      <bx:file format="png" path="favicon_32.png" width="32" height="32"/>
      <bx:file format="png" path="favicon_48.png" width="48" height="48"/>
      <bx:file format="png" path="favicon_60.png" width="60" height="60"/>
      <bx:file format="png" path="favicon_blur.png" width="500" height="500"/>
    </bx:export>
    <filter id="filter-1" bx:preset="gaussian-blur 1 5.6" color-interpolation-filters="sRGB" x="-50%" y="-50%" width="200%" height="200%">
      <feGaussianBlur stdDeviation="5.6 5.6" edgeMode="none"/>
    </filter>
  </defs>
  <g style="filter: url(&quot;#filter-1&quot;);" transform="matrix(0.999999, 0, 0, 0.999999, 0.000001, -0.000001)">
    <circle id="circle-2" r="50" style="stroke-width: 1;" transform="matrix(0.707107, -0.707107, 0.707107, 0.707107, 0, 0)"/>
    <ellipse id="ellipse-2" rx="100" ry="30" style="stroke-width: 1;" transform="matrix(0.707107, -0.707107, 0.707107, 0.707107, 0, 0)"/>
  </g>
  <g id="main-avatar" transform="matrix(0.707107, -0.707107, 0.707107, 0.707107, 0, 0)" style="filter: none;">
    <circle id="halo" r="40" fill="#FFF" style="" cy="0" cx="0"/>
    <circle id="event-horizon-back" cx="0" cy="0" r="30" fill="#000"/>
    <ellipse id="accretion-disk" cx="0" cy="0" rx="90" ry="20" fill="#FFF"/>
    <path id="event-horizon-front" d="M-30,0 A1,1 0 0,1 30,0 A9,2 0 0,1 -30,0" fill="#000"/>
  </g>
</svg>