<?xml version="1.0" encoding="utf-8"?>
<!-- Generator: Adobe Illustrator 14.0.0, SVG Export Plug-In . SVG Version: 6.00 Build 43363)  -->
<!DOCTYPE svg PUBLIC "-//W3C//DTD SVG 1.1//EN" "http://www.w3.org/Graphics/SVG/1.1/DTD/svg11.dtd">
<svg version="1.1" id="main-svg" xmlns="http://www.w3.org/2000/svg" xmlns:xlink="http://www.w3.org/1999/xlink" x="0px" y="0px"
	 width="150px" height="150px" viewBox="25 725 150 150" enable-background="new 25 725 150 150" xml:space="preserve">
<g id="main-avatar_1_" transform="rotate(-45)">
	<path d="M-448.967,636.396c0-25.41-20.598-46.008-46.008-46.008c-25.409,0-46.008,20.598-46.008,46.008
		c0,25.41,20.598,46.008,46.008,46.008C-469.565,682.404-448.966,661.806-448.967,636.396z M-494.975,670.902
		c-19.057,0-34.506-15.449-34.506-34.506c0.001-19.057,15.45-34.506,34.507-34.507c19.057,0.001,34.506,15.45,34.506,34.506
		C-460.468,655.452-475.918,670.902-494.975,670.902z"/>
	<path d="M-391.457,636.396c0-10.679-32.752-19.657-77.15-22.249c5.074,6.008,8.139,13.768,8.139,22.248
		c0,4.235-15.449,7.668-34.507,7.668c-19.057,0-34.506-3.433-34.506-7.668c0-8.479,3.065-16.241,8.14-22.249
		c-44.398,2.591-77.152,11.57-77.152,22.249c-0.001,12.705,46.347,23.004,103.518,23.003
		C-437.803,659.4-391.456,649.101-391.457,636.396z"/>
</g>
</svg>
