<?xml version="1.0" encoding="utf-8"?>
<svg id="main-svg" version="1.1" x="0px" y="0px" width="500px" height="500px" viewBox="-100 -100 200 200" xmlns="http://www.w3.org/2000/svg" xmlns:bx="https://boxy-svg.com">
  <defs>
    <symbol id="symbol-0" viewBox="0 0 200 200" bx:pinned="true">
      <title>gear</title>
      <path style="opacity: 1; fill: rgb(255, 255, 255);" d="M 199.38 89.39 L 199.38 105.09 L 174.23 113.21 L 169.38 128.13 L 184.95 149.49 L 175.73 162.18 L 150.6 153.98 L 137.92 163.19 L 137.96 189.63 L 123.03 194.48 L 107.53 173.07 L 91.85 173.07 L 76.35 194.48 L 61.42 189.63 L 61.46 163.19 L 48.78 153.98 L 23.65 162.18 L 14.43 149.49 L 30 128.13 L 25.15 113.21 L 0 105.09 L 0 89.39 L 25.15 81.27 L 30 66.35 L 14.43 44.99 L 23.65 32.3 L 48.78 40.5 L 61.46 31.29 L 61.42 4.85 L 76.35 0 L 91.85 21.41 L 107.53 21.41 L 123.03 0 L 137.96 4.85 L 137.92 31.29 L 150.6 40.5 L 175.73 32.3 L 184.95 44.99 L 169.38 66.35 L 174.23 81.27 L 199.38 89.39 Z">
        <title>Gear</title>
      </path>
    </symbol>
    <symbol id="gear" viewBox="0 0 200 200" bx:pinned="true">
      <path d="M 199.69 92.15 L 199.69 107.85 L 174.54 115.97 L 169.69 130.89 L 185.26 152.25 L 176.04 164.94 L 150.91 156.74 L 138.23 165.95 L 138.27 192.39 L 123.34 197.24 L 107.84 175.83 L 92.16 175.83 L 76.66 197.24 L 61.73 192.39 L 61.77 165.95 L 49.09 156.74 L 23.96 164.94 L 14.74 152.25 L 30.31 130.89 L 25.46 115.97 L 0.31 107.85 L 0.31 92.15 L 25.46 84.03 L 30.31 69.11 L 14.74 47.75 L 23.96 35.06 L 49.09 43.26 L 61.77 34.05 L 61.73 7.61 L 76.66 2.76 L 92.16 24.17 L 107.84 24.17 L 123.34 2.76 L 138.27 7.61 L 138.23 34.05 L 150.91 43.26 L 176.04 35.06 L 185.26 47.75 L 169.69 69.11 L 174.54 84.03 L 199.69 92.15 Z" fill="#FFF"/>
      <circle cx="100" cy="100" r="20" fill="#03750F"/>
    </symbol>
    <linearGradient gradientUnits="userSpaceOnUse" x1="37.635" y1="-349.78" x2="37.635" y2="361.531" id="gradient-0">
      <stop offset="0" style="stop-color: rgb(93, 0, 183);"/>
      <stop offset="1" style="stop-color: rgb(49, 0, 124);"/>
    </linearGradient>
  </defs>
  <g style="" transform="matrix(0.281171, 0, 0, 0.281171, -10.582032, -1.65294)">
    <title>Constellation</title>
    <rect x="-318.02" y="-349.78" width="711.311" height="711.311" style="pointer-events: none; fill: url(&quot;#gradient-0&quot;);"/>
    <polygon style="fill: none; stroke-width: 7.11311px; stroke: rgba(255, 255, 255, 0.667);" points="49.303 -195.274 -125.413 -66.725 -60.69 170.415 177.339 142.71 208.573 -98.546"/>
    <path id="path-35" style="fill-opacity: 1; fill-rule: nonzero; stroke: none; fill: rgb(255, 255, 255); stroke-width: 0.19;" d="M -222.36 -67.905 L -156.07 -59.045 C -153.17 -58.665 -150.45 -57.685 -148.07 -56.245 L -171.3 -25.831 L -140.9 -49.076 C -139.46 -46.686 -138.48 -43.966 -138.1 -41.076 L -129.24 25.213 L -120.38 -41.076 C -120 -43.966 -119.01 -46.686 -117.58 -49.076 L -87.174 -25.831 L -110.41 -56.245 C -108.02 -57.685 -105.31 -58.665 -102.41 -59.045 L -36.122 -67.905 L -102.41 -76.755 C -105.31 -77.155 -108.02 -78.126 -110.41 -79.566 L -87.174 -109.98 L -117.58 -86.736 C -119.01 -89.136 -120 -91.836 -120.38 -94.736 L -129.24 -161.03 L -138.1 -94.736 C -138.48 -91.836 -139.46 -89.136 -140.9 -86.736 L -171.3 -109.98 L -148.07 -79.566 C -150.45 -78.126 -153.17 -77.155 -156.07 -76.755 L -222.36 -67.905 M 141.643 -101.86 L 191.576 -95.197 C 193.765 -94.907 195.806 -94.167 197.603 -93.077 L 180.104 -70.176 L 203.003 -87.687 C 204.085 -85.887 204.826 -83.827 205.114 -81.657 L 211.787 -31.725 L 218.46 -81.657 C 218.749 -83.827 219.486 -85.887 220.57 -87.687 L 243.477 -70.176 L 225.968 -93.077 C 227.772 -94.167 229.812 -94.907 231.997 -95.197 L 281.931 -101.86 L 231.997 -108.54 C 229.812 -108.83 227.772 -109.57 225.968 -110.66 L 243.477 -133.57 L 220.57 -116.06 C 219.486 -117.86 218.749 -119.89 218.46 -122.08 L 211.787 -172.01 L 205.114 -122.08 C 204.826 -119.89 204.085 -117.86 203.003 -116.06 L 180.104 -133.57 L 197.603 -110.66 C 195.806 -109.57 193.765 -108.83 191.576 -108.54 L 141.643 -101.86 M -171.13 174.559 L -88.483 185.604 C -84.859 186.08 -81.481 187.293 -78.507 189.098 L -107.47 227.011 L -69.57 198.035 C -67.78 201.009 -66.553 204.402 -66.076 208.011 L -55.032 290.651 L -43.988 208.011 C -43.512 204.402 -42.292 201.009 -40.499 198.035 L -2.586 227.011 L -31.562 189.098 C -28.578 187.293 -25.202 186.08 -21.586 185.604 L 61.059 174.559 L -21.586 163.529 C -25.202 163.024 -28.578 161.811 -31.562 160.021 L -2.586 122.108 L -40.499 151.084 C -42.292 148.096 -43.512 144.732 -43.988 141.108 L -55.032 58.468 L -66.076 141.108 C -66.553 144.732 -67.78 148.096 -69.57 151.084 L -107.47 122.108 L -78.507 160.021 C -81.481 161.811 -84.859 163.024 -88.483 163.529 L -171.13 174.559 M 79.186 136.19 L 145.715 145.082 C 148.632 145.465 151.352 146.442 153.746 147.894 L 130.431 178.416 L 160.941 155.089 C 162.382 157.483 163.37 160.215 163.753 163.12 L 172.645 229.646 L 181.536 163.12 C 181.92 160.215 182.902 157.483 184.346 155.089 L 214.867 178.416 L 191.54 147.894 C 193.942 146.442 196.66 145.465 199.571 145.082 L 266.104 136.19 L 199.571 127.31 C 196.66 126.904 193.942 125.927 191.54 124.486 L 214.867 93.965 L 184.346 117.292 C 182.902 114.886 181.92 112.178 181.536 109.26 L 172.645 42.731 L 163.753 109.26 C 163.37 112.178 162.382 114.886 160.941 117.292 L 130.431 93.965 L 153.746 124.486 C 151.352 125.927 148.632 126.904 145.715 127.31 L 79.186 136.19 M -21.729 -187.68 L 28.204 -181.02 C 30.393 -180.73 32.434 -179.99 34.231 -178.9 L 16.732 -156 L 39.631 -173.51 C 40.713 -171.71 41.454 -169.65 41.742 -167.48 L 48.415 -117.55 L 55.088 -167.48 C 55.377 -169.65 56.114 -171.71 57.198 -173.51 L 80.105 -156 L 62.596 -178.9 C 64.4 -179.99 66.44 -180.73 68.625 -181.02 L 118.559 -187.68 L 68.625 -194.36 C 66.44 -194.65 64.4 -195.39 62.596 -196.48 L 80.105 -219.39 L 57.198 -201.88 C 56.114 -203.68 55.377 -205.71 55.088 -207.9 L 48.415 -257.83 L 41.742 -207.9 C 41.454 -205.71 40.713 -203.68 39.631 -201.88 L 16.732 -219.39 L 34.231 -196.48 C 32.434 -195.39 30.393 -194.65 28.204 -194.36 L -21.729 -187.68"/>
  </g>
  <g style="visibility: hidden;" transform="matrix(0.281171, 0, 0, 0.281171, -10.58201, -1.652017)">
    <title>Other</title>
    <rect x="-318.02" y="-349.78" width="711.311" height="711.311" style="pointer-events: none; fill: rgb(148, 148, 148);"/>
    <g style="visibility: hidden;">
      <path d="M 37.635 -136.565 L 259.742 5.875 L 37.635 148.315 L -184.472 5.875 Z" bx:shape="n-gon 37.635 5.875 222.107 142.44 4 0 1@f88f5004" style="fill: none; stroke: rgb(255, 255, 255); stroke-width: 64.018px; stroke-linejoin: round;"/>
      <path d="M 21.848 -96.472 Q 37.635 -106.594 53.422 -96.472 L 197.255 -4.247 Q 213.042 5.875 197.255 15.997 L 53.422 108.222 Q 37.635 118.344 21.848 108.222 L -121.985 15.997 Q -137.772 5.875 -121.985 -4.247 Z" bx:shape="n-gon 37.635 5.875 175.407 112.469 4 0.09 1@5b2686c1" style="stroke-width: 1; fill: rgb(148, 148, 148);"/>
    </g>
    <path d="M 54.916 -163.51 L 277.023 -21.069 C 286.201 -15.183 291.752 -5.029 291.752 5.875 C 291.752 16.779 286.201 26.933 277.023 32.819 L 54.916 175.259 C 44.386 182.012 30.886 182.012 20.356 175.259 L -201.75 32.819 C -210.93 26.933 -216.48 16.779 -216.48 5.875 C -216.48 -5.029 -210.93 -15.183 -201.75 -21.069 L 20.356 -163.51 C 30.886 -170.26 44.386 -170.26 54.916 -163.51 Z M -121.98 -4.247 C -132.51 2.501 -132.51 9.249 -121.98 15.997 L 21.849 108.222 C 32.374 114.97 42.898 114.97 53.423 108.222 L 197.256 15.997 C 207.781 9.249 207.781 2.501 197.256 -4.247 L 53.423 -96.472 C 42.898 -103.22 32.374 -103.22 21.849 -96.472 L -121.98 -4.247 Z" style="fill: rgb(255, 255, 255);"/>
  </g>
  <g style="visibility: hidden;" transform="matrix(0.281171, 0, 0, 0.281171, -10.539107, -1.65293)">
    <title>Stella</title>
    <rect x="-318.02" y="-349.78" width="711.311" height="711.311" style="pointer-events: none; fill: rgb(244, 93, 232);"/>
    <path d="M 13.79 174.306 L 61.481 174.306 L 61.481 253.356 L 13.79 253.356 L 13.79 174.306 Z M 10.809 150.464 C -22.768 150.464 -34.43 122.892 -34.43 102.191 L 1.312 102.191 L 1.359 -164.88 C 1.359 -222.42 33.513 -281.74 37.635 -284.69 C 41.757 -281.75 73.911 -222.42 73.911 -164.88 L 73.958 102.194 L 109.7 102.194 C 109.7 122.894 98.038 150.464 64.461 150.464 L 10.809 150.464 Z" style="fill: rgb(255, 255, 255); visibility: hidden;">
      <title>Sword</title>
    </path>
    <g transform="matrix(1.020658, 0, 0, 1.020658, -0.780427, 9.421407)" style="visibility: hidden;">
      <path d="M -113.66 124.753 L -76.873 161.535 L -137.84 222.502 L -174.62 185.72 L -113.66 124.753 Z M -97.567 104.066 C -123.46 78.17 -111.19 47.912 -95.227 31.947 L -67.661 59.512 L 138.353 -146.43 C 182.724 -190.8 253.272 -211.75 258.728 -210.85 C 259.637 -205.4 238.678 -134.84 194.307 -90.474 L -11.636 115.542 L 15.93 143.107 C -0.035 159.072 -30.292 171.341 -56.188 145.445 L -97.567 104.066 Z" style="fill: rgb(255, 255, 255); stroke-width: 1; transform-origin: 51.248px -3.37px;">
        <title>Sword</title>
      </path>
      <path d="M 250.176 185.724 L 213.396 222.504 L 152.426 161.534 L 189.216 124.754 L 250.176 185.724 Z M 131.744 145.444 C 105.848 171.344 75.591 159.074 59.626 143.114 L 87.192 115.544 L 56.02 84.361 L 112.037 28.344 L 143.217 59.514 L 170.786 31.949 C 186.746 47.914 199.016 78.172 173.126 104.074 L 131.744 145.444 Z M -118.75 -90.47 C -163.12 -134.84 -184.08 -205.4 -183.17 -210.85 C -177.72 -211.75 -107.17 -190.8 -62.797 -146.43 L 19.717 -63.943 L -36.268 -7.958 L -118.75 -90.47 Z" style="fill: rgb(255, 255, 255); stroke-width: 1;">
        <title>Sword 2</title>
      </path>
    </g>
    <g transform="matrix(1, 0, 0, 1, 494.792877, -511.631256)" style="visibility: hidden;">
      <path id="path-2" style="fill-opacity: 1; fill-rule: nonzero; stroke: none; stroke-width: 0.474; fill: rgb(255, 255, 255);" d="M -341.45 396.738 L -333.96 452.773 C -331.45 471.465 -316.75 486.167 -298.06 488.659 L -242.01 496.15 L -298.06 503.643 C -316.75 506.136 -331.45 520.836 -333.96 539.527 L -341.45 595.575 L -348.93 539.527 C -351.44 520.836 -366.12 506.136 -384.81 503.643 L -440.85 496.15 L -384.81 488.659 C -366.12 486.167 -351.44 471.465 -348.93 452.773 L -341.45 396.738"/>
      <path id="path-3" style="fill-opacity: 1; fill-rule: nonzero; stroke: none; stroke-width: 0.474; fill: rgb(255, 255, 255);" d="M -439.93 309.173 L -435.86 339.671 C -434.51 349.836 -426.5 357.845 -416.33 359.188 L -385.83 363.258 L -416.33 367.338 C -426.5 368.695 -434.51 376.703 -435.86 386.869 L -439.93 417.367 L -444 386.869 C -445.37 376.703 -453.37 368.695 -463.53 367.338 L -494.02 363.258 L -463.53 359.188 C -453.37 357.845 -445.37 349.836 -444 339.671 L -439.93 309.173"/>
      <path id="path-4" style="fill-opacity: 1; fill-rule: nonzero; stroke: none; stroke-width: 0.474; fill: rgb(255, 255, 255);" d="M -410.78 632.274 L -407.25 658.651 C -406.07 667.448 -399.15 674.358 -390.36 675.534 L -363.99 679.06 L -390.36 682.587 C -399.15 683.762 -406.07 690.673 -407.25 699.47 L -410.78 725.847 L -414.29 699.47 C -415.47 690.673 -422.39 683.762 -431.19 682.587 L -457.56 679.06 L -431.19 675.534 C -422.39 674.358 -415.47 667.448 -414.29 658.651 L -410.78 632.274"/>
      <path id="path-7" style="fill-opacity: 1; fill-rule: nonzero; stroke: none; stroke-width: 0.474; fill: rgb(255, 255, 255);" d="M -573.21 518.782 L -565.72 574.817 C -563.21 593.509 -548.51 608.209 -529.82 610.702 L -473.77 618.194 L -529.82 625.686 C -548.51 628.179 -563.21 642.879 -565.72 661.57 L -573.21 717.619 L -580.69 661.57 C -583.2 642.879 -597.88 628.179 -616.58 625.686 L -672.61 618.194 L -616.58 610.702 C -597.88 608.209 -583.2 593.509 -580.69 574.817 L -573.21 518.782"/>
      <path id="path-8" style="fill-opacity: 1; fill-rule: nonzero; stroke: none; stroke-width: 0.474; fill: rgb(255, 255, 255);" d="M -565.78 396.054 L -562.47 420.867 C -561.36 429.148 -554.84 435.658 -546.57 436.756 L -521.75 440.063 L -546.57 443.397 C -554.84 444.495 -561.36 451.016 -562.47 459.284 L -565.78 484.113 L -569.09 459.284 C -570.2 451.016 -576.71 444.495 -584.99 443.397 L -609.8 440.063 L -584.99 436.756 C -576.71 435.658 -570.2 429.148 -569.09 420.867 L -565.78 396.054"/>
    </g>
    <g transform="matrix(0.412605, 0, 0, 0.412605, -79.367912, -13.90989)" style="visibility: hidden;">
      <path id="path-6" style="fill-opacity: 1; fill-rule: nonzero; stroke: none; fill: rgb(255, 255, 255); stroke-width: 0.474;" d="M 223.778 -340.29 L 241.462 -257.83 L 259.159 -340.29 C 266.059 -372.3 291.111 -397.34 323.196 -404.26 L 405.604 -421.95 L 323.196 -439.64 C 291.111 -446.51 266.059 -471.55 259.159 -503.66 L 241.462 -586.07 L 223.778 -503.66 C 216.888 -471.55 191.836 -446.51 159.751 -439.64 L 77.334 -421.95 L 159.751 -404.26 C 191.836 -397.34 216.888 -372.3 223.778 -340.29"/>
      <path id="path-9" style="fill-opacity: 1; fill-rule: nonzero; stroke: none; fill: rgb(255, 255, 255); stroke-width: 0.474;" d="M 461.593 -53.254 C 518.74 -40.972 563.382 3.651 575.654 60.84 L 607.184 207.655 L 638.705 60.84 C 650.977 3.651 695.614 -40.972 752.775 -53.254 L 899.585 -84.741 L 752.775 -116.28 C 695.614 -128.56 650.977 -173.18 638.705 -230.37 L 607.184 -377.14 L 575.654 -230.37 C 563.382 -173.18 518.74 -128.56 461.593 -116.28 L 314.783 -84.741 L 461.593 -53.254"/>
      <path id="path-10" style="fill-opacity: 1; fill-rule: nonzero; stroke: none; fill: rgb(255, 255, 255); stroke-width: 0.474;" d="M -126.54 -76.771 L -111.17 -5.131 L -95.794 -76.771 C -89.804 -104.64 -68.024 -126.39 -40.141 -132.4 L 31.487 -147.8 L -40.141 -163.16 C -68.024 -169.12 -89.804 -190.92 -95.794 -218.79 L -111.17 -290.43 L -126.54 -218.79 C -132.54 -190.92 -154.31 -169.12 -182.19 -163.16 L -253.82 -147.8 L -182.19 -132.4 C -154.31 -126.39 -132.54 -104.64 -126.54 -76.771"/>
      <path id="path-12" style="fill-opacity: 1; fill-rule: nonzero; stroke: none; fill: rgb(255, 255, 255); stroke-width: 0.474;" d="M 530.472 377.373 L 509.678 280.54 L 488.879 377.373 C 480.789 415.073 451.346 444.521 413.656 452.63 L 316.823 473.4 L 413.656 494.218 C 451.346 502.28 480.789 531.728 488.879 569.427 L 509.678 666.26 L 530.472 569.427 C 538.567 531.728 568.01 502.28 605.705 494.218 L 702.538 473.4 L 605.705 452.63 C 568.01 444.521 538.567 415.073 530.472 377.373"/>
      <path id="path-13" style="fill-opacity: 1; fill-rule: nonzero; stroke: none; fill: rgb(255, 255, 255); stroke-width: 0.474;" d="M -120.78 346.74 C -63.639 359.022 -18.997 403.644 -6.724 460.834 L 24.806 607.648 L 56.326 460.834 C 68.599 403.644 113.236 359.022 170.397 346.74 L 317.207 315.252 L 170.397 283.718 C 113.236 271.436 68.599 226.813 56.326 169.623 L 24.806 22.856 L -6.724 169.623 C -18.997 226.813 -63.639 271.436 -120.78 283.718 L -267.6 315.252 L -120.78 346.74"/>
    </g>
    <g transform="matrix(0.293662, 0, 0, 0.293662, -522.761597, -23.523338)" style="visibility: hidden;">
      <path id="path-14" style="fill-opacity: 1; fill-rule: nonzero; stroke: none; fill: rgb(255, 255, 255); stroke-width: 0.474;" d="M 2067.18 -2.152 L 2264.59 -260.45 L 2006.3 -63.04 C 1994.08 -83.383 1985.79 -106.38 1982.5 -130.99 L 1907.28 -694.02 L 1832.06 -130.99 C 1828.77 -106.38 1820.48 -83.383 1808.27 -63.04 L 1549.96 -260.45 L 1747.38 -2.152 C 1727.04 10.083 1704.04 18.334 1679.41 21.654 L 1116.37 96.863 L 1679.41 172.072 C 1704.04 175.392 1727.04 183.643 1747.38 195.877 L 1549.96 454.178 L 1808.27 256.766 C 1820.48 277.109 1828.77 300.108 1832.06 324.719 L 1907.28 887.793 L 1982.5 324.719 C 1985.79 300.108 1994.08 277.109 2006.3 256.766 L 2264.59 454.178 L 2067.18 195.877 C 2087.52 183.643 2110.51 175.392 2135.15 172.072 L 2698.19 96.863 L 2135.15 21.654 C 2110.51 18.334 2087.52 10.083 2067.18 -2.152"/>
      <path id="path-16" style="fill-opacity: 1; fill-rule: nonzero; stroke: none; fill: rgb(255, 255, 255); stroke-width: 0.474;" d="M 2688.36 -144.98 C 2691.56 -146.88 2695.13 -148.25 2699.01 -148.78 L 2787.6 -160.63 L 2699.01 -172.49 C 2695.13 -172.96 2691.56 -174.38 2688.36 -176.28 L 2719.37 -216.87 L 2678.8 -185.86 C 2676.88 -189.04 2675.49 -192.59 2674.98 -196.48 L 2663.15 -285.06 L 2651.31 -196.48 C 2650.79 -192.59 2649.41 -189.04 2647.49 -185.86 L 2606.92 -216.87 L 2637.93 -176.28 C 2634.73 -174.38 2631.17 -172.96 2627.29 -172.49 L 2538.69 -160.63 L 2627.29 -148.78 C 2631.17 -148.25 2634.73 -146.88 2637.93 -144.98 L 2606.92 -104.39 L 2647.49 -135.4 C 2649.41 -132.23 2650.79 -128.62 2651.31 -124.78 L 2663.15 -36.147 L 2674.98 -124.78 C 2675.49 -128.62 2676.88 -132.23 2678.8 -135.4 L 2719.37 -104.39 L 2688.36 -144.98"/>
      <path id="path-17" style="fill-opacity: 1; fill-rule: nonzero; stroke: none; fill: rgb(255, 255, 255); stroke-width: 0.474;" d="M 1493.76 542.523 L 1405.16 530.668 C 1401.28 530.146 1397.72 528.771 1394.52 526.827 L 1425.53 486.282 L 1384.95 517.295 C 1383.03 514.07 1381.65 510.514 1381.14 506.673 L 1369.31 418.043 L 1357.46 506.673 C 1356.95 510.514 1355.57 514.07 1353.65 517.295 L 1313.07 486.282 L 1344.08 526.827 C 1340.89 528.771 1337.32 530.146 1333.45 530.668 L 1244.84 542.523 L 1333.45 554.331 C 1337.32 554.852 1340.89 556.227 1344.08 558.172 L 1313.07 598.716 L 1353.65 567.703 C 1355.57 570.928 1356.95 574.484 1357.46 578.373 L 1369.31 666.955 L 1381.14 578.373 C 1381.65 574.484 1383.03 570.928 1384.95 567.703 L 1425.53 598.716 L 1394.52 558.172 C 1397.72 556.227 1401.28 554.852 1405.16 554.331 L 1493.76 542.523"/>
      <path id="path-18" style="fill-opacity: 1; fill-rule: nonzero; stroke: none; fill: rgb(255, 255, 255); stroke-width: 0.474;" d="M 2513.51 618.775 L 2399.18 603.506 C 2394.19 602.842 2389.58 601.087 2385.46 598.574 L 2425.46 546.222 L 2373.11 586.245 C 2370.64 582.119 2368.86 577.519 2368.19 572.54 L 2352.92 458.209 L 2337.65 572.54 C 2336.98 577.519 2335.2 582.119 2332.72 586.245 L 2280.37 546.222 L 2320.38 598.574 C 2316.25 601.087 2311.65 602.842 2306.65 603.506 L 2192.32 618.775 L 2306.65 634.045 C 2311.65 634.709 2316.25 636.511 2320.38 638.976 L 2280.37 691.329 L 2332.72 651.306 C 2335.2 655.431 2336.98 660.031 2337.65 665.058 L 2352.92 779.389 L 2368.19 665.058 C 2368.86 660.031 2370.64 655.431 2373.11 651.306 L 2425.46 691.329 L 2385.46 638.976 C 2389.58 636.511 2394.19 634.709 2399.18 634.045 L 2513.51 618.775"/>
      <path id="path-19" style="fill-opacity: 1; fill-rule: nonzero; stroke: none; fill: rgb(255, 255, 255); stroke-width: 0.474;" d="M 1152.5 -404.99 L 1306.84 -384.36 C 1313.6 -383.46 1319.89 -381.19 1325.46 -377.82 L 1271.36 -307.02 L 1342.16 -361.13 C 1345.51 -355.58 1347.78 -349.27 1348.68 -342.54 L 1369.31 -188.18 L 1389.92 -342.54 C 1390.83 -349.27 1393.1 -355.58 1396.44 -361.13 L 1467.24 -307.02 L 1413.14 -377.82 C 1418.71 -381.19 1425.01 -383.46 1431.76 -384.36 L 1586.09 -404.99 L 1431.76 -425.62 C 1425.01 -426.47 1418.71 -428.8 1413.14 -432.12 L 1467.24 -502.91 L 1396.44 -448.81 C 1393.1 -454.4 1390.83 -460.66 1389.92 -467.44 L 1369.31 -621.8 L 1348.68 -467.44 C 1347.78 -460.66 1345.51 -454.4 1342.16 -448.81 L 1271.36 -502.91 L 1325.46 -432.12 C 1319.89 -428.8 1313.6 -426.47 1306.84 -425.62 L 1152.5 -404.99"/>
      <path id="path-20" style="fill-opacity: 1; fill-rule: nonzero; stroke: none; fill: rgb(255, 255, 255); stroke-width: 0.474;" d="M 2162.97 -650.39 L 2317.31 -629.76 C 2324.07 -628.86 2330.37 -626.59 2335.94 -623.22 L 2281.83 -552.42 L 2352.63 -606.53 C 2355.98 -600.98 2358.25 -594.67 2359.16 -587.94 L 2379.78 -433.58 L 2400.39 -587.94 C 2401.3 -594.67 2403.57 -600.98 2406.91 -606.53 L 2477.71 -552.42 L 2423.61 -623.22 C 2429.18 -626.59 2435.48 -628.86 2442.23 -629.76 L 2596.56 -650.39 L 2442.23 -671.02 C 2435.48 -671.87 2429.18 -674.2 2423.61 -677.52 L 2477.71 -748.32 L 2406.91 -694.21 C 2403.57 -699.8 2401.3 -706.07 2400.39 -712.85 L 2379.78 -867.2 L 2359.16 -712.85 C 2358.25 -706.07 2355.98 -699.8 2352.63 -694.21 L 2281.83 -748.32 L 2335.94 -677.52 C 2330.37 -674.2 2324.07 -671.87 2317.31 -671.02 L 2162.97 -650.39"/>
    </g>
    <path id="path-1" style="fill-opacity: 1; fill-rule: nonzero; stroke: none; fill: rgb(255, 255, 255); stroke-width: 0.474;" d="M 12.964 -154.31 L 20.261 -120.29 L 27.562 -154.31 C 30.409 -167.52 40.746 -177.85 53.984 -180.71 L 87.986 -188.01 L 53.984 -195.31 C 40.746 -198.14 30.409 -208.47 27.562 -221.72 L 20.261 -255.72 L 12.964 -221.72 C 10.121 -208.47 -0.215 -198.14 -13.454 -195.31 L -47.46 -188.01 L -13.454 -180.71 C -0.215 -177.85 10.121 -167.52 12.964 -154.31 M 111.088 -35.883 C 134.667 -30.815 153.086 -12.403 158.15 11.193 L 171.159 71.77 L 184.165 11.193 C 189.228 -12.403 207.646 -30.815 231.231 -35.883 L 291.805 -48.874 L 231.231 -61.888 C 207.646 -66.954 189.228 -85.365 184.165 -108.96 L 171.159 -169.52 L 158.15 -108.96 C 153.086 -85.365 134.667 -66.954 111.088 -61.888 L 50.513 -48.874 L 111.088 -35.883 M -131.58 -45.586 L -125.24 -16.027 L -118.89 -45.586 C -116.42 -57.085 -107.44 -66.059 -95.93 -68.539 L -66.376 -74.893 L -95.93 -81.231 C -107.44 -83.69 -116.42 -92.684 -118.89 -104.18 L -125.24 -133.74 L -131.58 -104.18 C -134.06 -92.684 -143.04 -83.69 -154.54 -81.231 L -184.09 -74.893 L -154.54 -68.539 C -143.04 -66.059 -134.06 -57.085 -131.58 -45.586 M 139.507 141.796 L 130.928 101.842 L 122.346 141.796 C 119.008 157.351 106.86 169.502 91.309 172.848 L 51.355 181.417 L 91.309 190.007 C 106.86 193.333 119.008 205.484 122.346 221.039 L 130.928 260.992 L 139.507 221.039 C 142.848 205.484 154.996 193.333 170.549 190.007 L 210.503 181.417 L 170.549 172.848 C 154.996 169.502 142.848 157.351 139.507 141.796 M -129.2 129.157 C -105.63 134.224 -87.206 152.636 -82.142 176.233 L -69.133 236.809 L -56.128 176.233 C -51.064 152.636 -32.646 134.224 -9.061 129.157 L 51.513 116.165 L -9.061 103.154 C -32.646 98.086 -51.064 79.674 -56.128 56.077 L -69.133 -4.479 L -82.142 56.077 C -87.206 79.674 -105.63 98.086 -129.2 103.154 L -189.78 116.165 L -129.2 129.157"/>
  </g>
  <g style="visibility: hidden;" transform="matrix(0.281171, 0, 0, 0.281171, -10.582021, -1.651905)">
    <title>Seventh</title>
    <rect x="-318.02" y="-349.78" width="711.311" height="711.311" style="pointer-events: none; fill: rgb(235, 140, 31);"/>
    <path d="M 13.79 174.306 L 61.481 174.306 L 61.481 253.356 L 13.79 253.356 L 13.79 174.306 Z M 10.809 150.464 C -22.768 150.464 -34.43 122.892 -34.43 102.191 L 1.312 102.191 L 1.359 -164.88 C 1.359 -222.42 33.513 -281.74 37.635 -284.69 C 41.757 -281.75 73.911 -222.42 73.911 -164.88 L 73.958 102.194 L 109.7 102.194 C 109.7 122.894 98.038 150.464 64.461 150.464 L 10.809 150.464 Z" style="fill: rgb(255, 255, 255); visibility: hidden;">
      <title>Sword</title>
    </path>
  </g>
  <g style="visibility: hidden;" transform="matrix(0.281171, 0, 0, 0.281171, -10.58201, -1.652017)">
    <title>Sixth</title>
    <rect x="-318.02" y="-349.78" width="711.311" height="711.311" style="pointer-events: none; fill: rgb(235, 140, 31);"/>
    <path d="M 13.79 174.306 L 61.481 174.306 L 61.481 253.356 L 13.79 253.356 L 13.79 174.306 Z M 10.809 150.464 C -22.768 150.464 -34.43 122.892 -34.43 102.191 L 1.312 102.191 L 1.359 -164.88 C 1.359 -222.42 33.513 -281.74 37.635 -284.69 C 41.757 -281.75 73.911 -222.42 73.911 -164.88 L 73.958 102.194 L 109.7 102.194 C 109.7 122.894 98.038 150.464 64.461 150.464 L 10.809 150.464 Z" style="fill: rgb(255, 255, 255); visibility: hidden;">
      <title>Sword</title>
    </path>
    <path d="M -116.79 136.753 L -79.24 174.293 L -141.47 236.522 L -179.01 198.979 L -116.79 136.753 Z M -100.36 115.638 C -126.79 89.206 -114.27 58.324 -97.976 42.028 L -69.84 70.164 L 140.431 -140.03 C 185.72 -185.32 257.726 -206.7 263.292 -205.78 C 264.22 -200.22 242.827 -128.2 197.542 -82.921 L -12.658 127.35 L 15.478 155.486 C -0.814 171.782 -31.7 184.301 -58.128 157.872 L -100.36 115.638 Z M 254.564 198.982 L 217.025 236.522 L 154.796 174.293 L 192.346 136.753 L 254.564 198.982 Z M 133.684 157.868 C 107.255 184.304 76.373 171.782 60.077 155.493 L 88.213 127.353 L 56.396 95.526 L 113.572 38.35 L 145.396 70.164 L 173.535 42.031 C 189.824 58.324 202.347 89.209 175.921 115.645 L 133.684 157.868 Z M -121.98 -82.917 C -167.27 -128.2 -188.66 -200.22 -187.73 -205.78 C -182.17 -206.7 -110.16 -185.32 -64.875 -140.03 L 19.344 -55.841 L -37.799 1.298 L -121.98 -82.917 Z" style="fill: rgb(255, 255, 255); stroke-width: 1;"/>
    <g transform="matrix(1.020658, 0, 0, 1.020658, -0.780427, 9.421407)" style="visibility: hidden;">
      <path d="M -113.66 124.753 L -76.873 161.535 L -137.84 222.502 L -174.62 185.72 L -113.66 124.753 Z M -97.567 104.066 C -123.46 78.17 -111.19 47.912 -95.227 31.947 L -67.661 59.512 L 138.353 -146.43 C 182.724 -190.8 253.272 -211.75 258.728 -210.85 C 259.637 -205.4 238.678 -134.84 194.307 -90.474 L -11.636 115.542 L 15.93 143.107 C -0.035 159.072 -30.292 171.341 -56.188 145.445 L -97.567 104.066 Z" style="fill: rgb(255, 255, 255); stroke-width: 1; transform-origin: 51.248px -3.37px;">
        <title>Sword</title>
      </path>
      <path d="M 250.176 185.724 L 213.396 222.504 L 152.426 161.534 L 189.216 124.754 L 250.176 185.724 Z M 131.744 145.444 C 105.848 171.344 75.591 159.074 59.626 143.114 L 87.192 115.544 L 56.02 84.361 L 112.037 28.344 L 143.217 59.514 L 170.786 31.949 C 186.746 47.914 199.016 78.172 173.126 104.074 L 131.744 145.444 Z M -118.75 -90.47 C -163.12 -134.84 -184.08 -205.4 -183.17 -210.85 C -177.72 -211.75 -107.17 -190.8 -62.797 -146.43 L 19.717 -63.943 L -36.268 -7.958 L -118.75 -90.47 Z" style="fill: rgb(255, 255, 255); stroke-width: 1;">
        <title>Sword 2</title>
      </path>
    </g>
  </g>
  <g style="visibility: hidden;" transform="matrix(0.281171, 0, 0, 0.281171, -10.581077, -1.652919)">
    <title>Sapphire</title>
    <rect x="-318.02" y="-349.78" width="711.311" height="711.311" style="pointer-events: none; fill: rgb(15, 32, 187);"/>
    <path style="stroke-width: 3.46314px; fill: rgb(255, 255, 255);" d="M 37.6324 -200.19 C 39.9938 -200.21 40.4367 -199.9 43.4324 -198.89 C 98.9845 -179.89 156.922 -160.87 214.59 -141.67 C 222.872 -138.91 224.554 -133.66 224.554 -129.21 C 224.554 -87.245 224.554 -57.344 224.554 -25.325 C 224.554 35.6543 215.49 89.1686 166.625 152.314 C 128.483 201.601 65.645 241.107 37.6324 241.159 C 9.6207 241.2 -53.217 201.694 -91.358 152.407 C -140.23 89.2651 -149.29 35.7517 -149.29 -25.229 C -149.29 -57.249 -149.29 -87.141 -149.29 -129.11 C -149.29 -133.57 -147.61 -138.81 -139.33 -141.57 C -81.654 -160.77 -23.72 -179.79 31.8333 -198.79 C 34.8289 -199.81 35.2719 -200.21 37.6324 -200.19 Z M 37.6321 -139.71 L 37.6321 179.449 C 53.7579 179.436 96.2159 148.63 117.218 123.064 C 146.775 87.0864 167.108 36.9776 167.107 -7.4732 C 167.107 -19.223 167.107 -77.478 167.107 -87.297 C 167.107 -92.709 164.553 -97.72 158.092 -100.2 C 151.633 -102.68 37.6321 -139.71 37.6321 -139.71 Z"/>
    <g style="visibility: hidden;">
      <path style="stroke-width: 3.46314px; fill: rgba(255, 0, 0, 0.41); transform-origin: 146.223px 8.8254px;" d="M 37.6321 -247.23 C 40.3721 -247.25 40.8861 -246.89 44.3621 -245.71 C 108.821 -223.67 176.048 -201.6 242.961 -179.32 C 252.571 -176.12 254.5229 -170.03 254.5229 -164.86 C 254.5229 -116.1674 254.5229 -81.4832 254.5229 -44.329 C 254.5229 26.4255 244.007 88.5197 187.306 161.791 C 143.049 218.981 70.1361 264.821 37.6321 264.881 L 37.6321 193.2773 C 56.3435 193.2622 105.6084 157.5158 129.9777 127.8517 C 164.2738 86.1039 187.8669 27.9608 187.8668 -23.6158 C 187.8668 -37.2494 187.8668 -104.8451 187.8668 -116.2377 C 187.8668 -122.5102 184.9019 -128.334 177.4066 -131.2062 C 169.9113 -134.0784 37.6321 -177.0506 37.6321 -177.0506 L 37.6321 -247.23 Z"/>
      <path style="stroke-width: 3.46314px; fill: rgba(255, 0, 0, 0.41); transform-origin: -70.9589px 8.9382px;" d="M 37.6321 -247.12 C 34.8921 -247.14 34.3781 -246.78 30.9021 -245.6 C -33.557 -223.55 -100.78 -201.48 -167.7 -179.2 C -177.31 -176 -179.26 -169.91 -179.26 -164.74 C -179.26 -116.05 -179.26 -81.372 -179.26 -44.218 C -179.26 26.5382 -168.74 88.6317 -112.04 161.899 C -67.785 219.089 5.1281 264.929 37.6321 264.989 L 37.6321 -247.12 Z"/>
    </g>
    <g transform="matrix(1, 0, 0, 1, -0.000004, 0.110262)" style="visibility: hidden;">
      <path style="stroke-width: 3.46314px; fill: rgba(255, 0, 0, 0.41); transform-origin: 146.223px 8.8254px; visibility: hidden;" d="M 37.6321 264.881 L 37.6321 -247.23 M 37.6321 -247.23 L 37.6321 -247.23 C 40.3721 -247.25 40.8861 -246.89 44.3621 -245.71 C 108.821 -223.67 176.048 -201.6 242.961 -179.32 C 252.571 -176.12 254.5229 -170.03 254.5229 -164.86 C 254.5229 -116.1674 254.5229 -81.4832 254.5229 -44.329 C 254.5229 26.4255 244.007 88.5197 187.306 161.791 C 143.049 218.981 70.1361 264.821 37.6321 264.881">
        <title>right</title>
      </path>
      <path style="stroke-width: 3.46314px; fill: rgba(255, 0, 0, 0.41); transform-origin: -70.9589px 8.9382px; visibility: hidden;" d="M 37.6321 264.989 C 5.1281 264.929 -67.785 219.089 -112.04 161.899 C -168.74 88.6317 -179.26 26.5382 -179.26 -44.218 C -179.26 -81.372 -179.26 -116.05 -179.26 -164.74 C -179.26 -169.91 -177.31 -176 -167.7 -179.2 C -100.78 -201.48 -33.557 -223.55 30.9021 -245.6 C 34.3781 -246.78 34.8921 -247.14 37.6321 -247.12 M 37.6321 -247.12 L 37.6321 264.989">
        <title>left</title>
      </path>
      <path style="stroke-width: 3.46314px; fill: rgba(255, 0, 0, 0.41); transform-origin: 146.223px 8.8255px; visibility: hidden;" d="M 37.6316 -177.05 L 37.6316 193.277 C 56.343 193.262 105.608 157.516 129.977 127.852 C 164.273 86.104 187.867 27.9611 187.866 -23.616 C 187.866 -37.249 187.866 -104.84 187.866 -116.23 C 187.866 -122.51 184.902 -128.33 177.406 -131.2 C 169.911 -134.07 37.6316 -177.05 37.6316 -177.05 Z">
        <title>cutout</title>
      </path>
      <path style="stroke-width: 3.46314px; fill: rgba(255, 0, 0, 0.41); visibility: hidden;" d="M 37.6321 -247.2308 C 40.3721 -247.2508 40.8861 -246.89 44.3621 -245.71 C 108.821 -223.67 176.048 -201.6 242.961 -179.32 C 252.571 -176.12 254.5229 -170.03 254.5229 -164.86 C 254.5229 -116.1674 254.5229 -81.4832 254.5229 -44.329 C 254.5229 26.4255 244.007 88.5197 187.306 161.791 C 143.049 218.981 70.1361 264.821 37.6321 264.881 C 5.1281 264.929 -67.785 219.089 -112.04 161.899 C -168.74 88.6317 -179.26 26.5382 -179.26 -44.218 C -179.26 -81.372 -179.26 -116.05 -179.26 -164.74 C -179.26 -169.91 -177.31 -176 -167.7 -179.2 C -100.78 -201.48 -33.557 -223.55 30.9021 -245.6 C 34.3781 -246.78 34.8921 -247.2508 37.6321 -247.2308 Z">
        <title>joined</title>
      </path>
    </g>
  </g>
  <g id="fourth-part" style="visibility: hidden;">
    <title>Topaz</title>
    <rect x="-100" y="-100" width="200" height="200" style="pointer-events: none; fill: rgb(10, 118, 180);"/>
    <path style="stroke-linejoin: round; fill: rgb(255, 255, 255); stroke: rgb(255, 255, 255); stroke-width: 7px; visibility: hidden;" d="M 0.998 -6.886 C 4.799 -16.738 13.271 -37.9 13.271 -37.9 C 21.366 -43.713 41.697 -47.03 53.334 -31.165 C 60.775 -21.021 65.486 -0.195 49.203 19.372 C 41.323 28.841 23.802 44.253 11.266 54.671 L 15.432 37.402 L 2.795 24.612 L 17.692 9.794 L 0.998 -6.886 Z M -16.14 -3.408 C -12.339 -13.26 -5.386 -30.114 -5.386 -30.114 C -12.459 -40.759 -34.355 -50.572 -50.975 -34.078 C -62.376 -22.763 -66.185 2.205 -46.192 23.076 C -37.163 32.502 -16.996 48.827 -4.941 59.13 L -0.681 41.969 L -17.803 24.662 L -2.861 9.761 L -16.14 -3.408 Z" id="heart-base"/>
    <path d="M -0.836 -7.324 C 2.954 -17.149 11.394 -38.23 11.394 -38.23 C 11.639 -38.845 12.056 -39.378 12.595 -39.764 C 17.107 -42.9 25.299 -45.612 33.437 -45.151 C 41.494 -44.695 50.748 -40.778 57.307 -32.293 C 61.227 -26.851 64.702 -18.131 64.779 -8.63 C 64.855 0.74 61.502 11.919 53.063 22.29 C 45.033 31.906 27.37 47.47 14.858 57.871 C 13.704 58.83 12.064 58.941 10.79 58.148 C 9.515 57.354 8.894 55.834 9.246 54.374 L 12.937 39.074 L 1.723 27.725 C 0.375 26.359 0.384 24.161 1.745 22.807 L 14.093 10.524 L -0.049 -3.606 C -1.024 -4.58 -1.333 -6.039 -0.836 -7.324 Z M 1.031 12.963 L -11.382 25.343 L 3.218 40.1 C 4.073 40.964 4.415 42.211 4.123 43.389 L -0.117 60.468 C -0.408 61.64 -1.285 62.577 -2.435 62.945 C -3.584 63.314 -4.843 63.062 -5.761 62.277 C -17.722 52.053 -37.918 35.688 -47.065 26.157 C -57.398 15.148 -62.003 2.559 -62.13 -8.216 C -62.259 -19.125 -57.816 -29.411 -51.763 -35.604 C -42.565 -44.29 -31.383 -46.541 -22.365 -44.699 C -13.285 -42.847 -5.004 -36.87 -1.039 -31.114 C -0.399 -30.149 -0.279 -28.928 -0.72 -27.858 C -0.72 -27.858 -6.703 -13.358 -10.57 -3.475 L 1.025 8.024 C 1.683 8.677 2.055 9.565 2.056 10.492 C 2.057 11.42 1.688 12.308 1.031 12.963 Z" style="fill: rgb(255, 255, 255);"/>
  </g>
  <g style="visibility: hidden;" id="jaden">
    <title>Jaden</title>
    <rect x="-100" y="-100" width="200.0002" height="200.0001" style="fill: rgb(3, 117, 15); pointer-events: none;"/>
    <g style="transform-origin: 6.8415px -4.766px;" transform="matrix(0.939722, -0.341943, 0.341943, 0.939722, -1, -1)">
      <title>gears</title>
      <use width="70" height="70" transform="matrix(1, 0, 0, 1, -45, -75)" href="#gear"/>
      <use width="70" height="70" transform="matrix(1, 0, 0, 1, 0, -31)" href="#gear"/>
      <use width="70" height="70" transform="matrix(1, 0, 0, 1, -55.70000076293945, -1.7999999523162842)" href="#gear"/>
    </g>
    <g transform="matrix(-0.308937, 0.951082, -0.951082, -0.308937, -28.82473, -51.448921)" style="mix-blend-mode: difference; transform-origin: 43.8803px 70.397px; visibility: hidden;">
      <use width="70" height="70" transform="matrix(0.9397228360176086, -0.34194281697273254, 0.34194281697273254, 0.9397228360176086, -29.212186813354492, 37.36521911621094)" href="#gear"/>
      <use width="70" height="70" transform="matrix(0.9397228360176086, -0.34194281697273254, 0.34194281697273254, 0.9397228360176086, 28.12080192565918, 63.325557708740234)" href="#gear"/>
    </g>
  </g>
  <g style="visibility: hidden;" id="ruby">
    <title>Ruby</title>
    <rect x="-100" y="-100" width="200.0002" height="200.0001" style="fill: rgb(190, 38, 39);"/>
    <path d="M 0 -75 L 13.2583 -13.2583 L 75 0 L 13.2583 13.2583 L 0 75 L -13.2583 13.2583 L -75 0 L -13.2583 -13.2583 Z" style="fill: rgb(255, 255, 255);" bx:shape="star 0 0 75 75 0.25 4 1@586d49ab"/>
    <rect x="-25.433" y="-38.7164" width="40" height="40" style="fill: rgb(255, 255, 255); transform-origin: -5.4978px -18.7164px;" transform="matrix(0.707107, 0.707107, -0.707107, 0.707107, 5.432999, 18.716396)"/>
  </g>
  <g style="visibility: hidden;" id="kate">
    <title>Kate</title>
    <rect x="-99.9573" y="-100" width="200.0002" height="200.0001" style="pointer-events: none;"/>
    <g id="main-avatar" transform="matrix(0.707107, -0.707107, 0.707107, 0.707107, 0, 0)">
      <circle id="halo" cx="0" cy="0" r="40" fill="#FFF"/>
      <circle id="event-horizon-back" cx="0" cy="0" r="30" fill="#000"/>
      <ellipse id="accretion-disk" cx="0" cy="0" rx="90" ry="20" fill="#FFF" data-animate-wipe-duration="4" data-animate-wipe-phase="-90"/>
      <path d="M-30,0 A1,1 0 0,1 30,0 A9,2 0 0,1 -30,0" fill="#000"/>
    </g>
  </g>
  <path d="M -820.3007 -771.4358 L 817.5746 -771.4358 L 817.5746 768.531 L -820.3007 768.531 L -820.3007 -771.4358 Z M 0 -100 C -55.2285 -100 -100 -55.2285 -100 0 C -100 55.2285 -55.2285 100 0 100 C 55.2285 100 100 55.2285 100 0 C 100 -55.2285 55.2285 -100 0 -100 Z" style="fill: rgb(28, 29, 35); pointer-events: none;"/>
</svg>